<mxfile host="app.diagrams.net" modified="2024-07-11T05:49:39.007Z" agent="Mozilla/5.0 (X11; Linux x86_64) AppleWebKit/537.36 (KHTML, like Gecko) Chrome/126.0.0.0 Safari/537.36 Edg/126.0.0.0" etag="nbL19OJ8SOe2K45honP9" version="24.6.4" type="device">
  <diagram name="Page-1" id="9f46799a-70d6-7492-0946-bef42562c5a5">
    <mxGraphModel dx="2789" dy="1061" grid="0" gridSize="10" guides="0" tooltips="1" connect="1" arrows="1" fold="1" page="0" pageScale="1" pageWidth="1100" pageHeight="850" background="none" math="0" shadow="0">
      <root>
        <mxCell id="0" />
        <mxCell id="1" parent="0" />
        <mxCell id="xlgzFOz0VYX2NlcNm7eb-1" value="UserRole&lt;br&gt;" style="swimlane;fontStyle=1;align=center;verticalAlign=top;childLayout=stackLayout;horizontal=1;startSize=26;horizontalStack=0;resizeParent=1;resizeParentMax=0;resizeLast=0;collapsible=1;marginBottom=0;whiteSpace=wrap;html=1;" parent="1" vertex="1">
          <mxGeometry x="210" y="90" width="160" height="190" as="geometry">
            <mxRectangle x="470" y="250" width="100" height="30" as="alternateBounds" />
          </mxGeometry>
        </mxCell>
        <mxCell id="xlgzFOz0VYX2NlcNm7eb-5" value="enum:" style="text;strokeColor=none;fillColor=none;align=left;verticalAlign=top;spacingLeft=4;spacingRight=4;overflow=hidden;rotatable=0;points=[[0,0.5],[1,0.5]];portConstraint=eastwest;whiteSpace=wrap;html=1;" parent="xlgzFOz0VYX2NlcNm7eb-1" vertex="1">
          <mxGeometry y="26" width="160" height="26" as="geometry" />
        </mxCell>
        <mxCell id="xlgzFOz0VYX2NlcNm7eb-2" value="- ADMIN" style="text;strokeColor=none;fillColor=none;align=left;verticalAlign=top;spacingLeft=4;spacingRight=4;overflow=hidden;rotatable=0;points=[[0,0.5],[1,0.5]];portConstraint=eastwest;whiteSpace=wrap;html=1;" parent="xlgzFOz0VYX2NlcNm7eb-1" vertex="1">
          <mxGeometry y="52" width="160" height="26" as="geometry" />
        </mxCell>
        <mxCell id="xlgzFOz0VYX2NlcNm7eb-18" value="- DRIVER" style="text;strokeColor=none;fillColor=none;align=left;verticalAlign=top;spacingLeft=4;spacingRight=4;overflow=hidden;rotatable=0;points=[[0,0.5],[1,0.5]];portConstraint=eastwest;whiteSpace=wrap;html=1;" parent="xlgzFOz0VYX2NlcNm7eb-1" vertex="1">
          <mxGeometry y="78" width="160" height="26" as="geometry" />
        </mxCell>
        <mxCell id="xlgzFOz0VYX2NlcNm7eb-17" value="- PASSENGER" style="text;strokeColor=none;fillColor=none;align=left;verticalAlign=top;spacingLeft=4;spacingRight=4;overflow=hidden;rotatable=0;points=[[0,0.5],[1,0.5]];portConstraint=eastwest;whiteSpace=wrap;html=1;" parent="xlgzFOz0VYX2NlcNm7eb-1" vertex="1">
          <mxGeometry y="104" width="160" height="26" as="geometry" />
        </mxCell>
        <mxCell id="xlgzFOz0VYX2NlcNm7eb-3" value="" style="line;strokeWidth=1;fillColor=none;align=left;verticalAlign=middle;spacingTop=-1;spacingLeft=3;spacingRight=3;rotatable=0;labelPosition=right;points=[];portConstraint=eastwest;strokeColor=inherit;" parent="xlgzFOz0VYX2NlcNm7eb-1" vertex="1">
          <mxGeometry y="130" width="160" height="8" as="geometry" />
        </mxCell>
        <mxCell id="xlgzFOz0VYX2NlcNm7eb-4" value="+ values(): UserRole[]" style="text;strokeColor=none;fillColor=none;align=left;verticalAlign=top;spacingLeft=4;spacingRight=4;overflow=hidden;rotatable=0;points=[[0,0.5],[1,0.5]];portConstraint=eastwest;whiteSpace=wrap;html=1;" parent="xlgzFOz0VYX2NlcNm7eb-1" vertex="1">
          <mxGeometry y="138" width="160" height="26" as="geometry" />
        </mxCell>
        <mxCell id="xlgzFOz0VYX2NlcNm7eb-8" value="+ valueOf(String): UserRole" style="text;strokeColor=none;fillColor=none;align=left;verticalAlign=top;spacingLeft=4;spacingRight=4;overflow=hidden;rotatable=0;points=[[0,0.5],[1,0.5]];portConstraint=eastwest;whiteSpace=wrap;html=1;" parent="xlgzFOz0VYX2NlcNm7eb-1" vertex="1">
          <mxGeometry y="164" width="160" height="26" as="geometry" />
        </mxCell>
        <mxCell id="xlgzFOz0VYX2NlcNm7eb-19" value="UserDao" style="swimlane;fontStyle=1;align=center;verticalAlign=top;childLayout=stackLayout;horizontal=1;startSize=26;horizontalStack=0;resizeParent=1;resizeParentMax=0;resizeLast=0;collapsible=1;marginBottom=0;whiteSpace=wrap;html=1;" parent="1" vertex="1">
          <mxGeometry x="60" y="310" width="160" height="296" as="geometry">
            <mxRectangle x="470" y="250" width="100" height="30" as="alternateBounds" />
          </mxGeometry>
        </mxCell>
        <mxCell id="xlgzFOz0VYX2NlcNm7eb-28" value="- id: Long" style="text;strokeColor=none;fillColor=none;align=left;verticalAlign=top;spacingLeft=4;spacingRight=4;overflow=hidden;rotatable=0;points=[[0,0.5],[1,0.5]];portConstraint=eastwest;whiteSpace=wrap;html=1;container=0;" parent="xlgzFOz0VYX2NlcNm7eb-19" vertex="1">
          <mxGeometry y="26" width="160" height="26" as="geometry" />
        </mxCell>
        <mxCell id="xlgzFOz0VYX2NlcNm7eb-29" value="- username: String" style="text;strokeColor=none;fillColor=none;align=left;verticalAlign=top;spacingLeft=4;spacingRight=4;overflow=hidden;rotatable=0;points=[[0,0.5],[1,0.5]];portConstraint=eastwest;whiteSpace=wrap;html=1;" parent="xlgzFOz0VYX2NlcNm7eb-19" vertex="1">
          <mxGeometry y="52" width="160" height="26" as="geometry" />
        </mxCell>
        <mxCell id="xlgzFOz0VYX2NlcNm7eb-30" value="- password: String" style="text;strokeColor=none;fillColor=none;align=left;verticalAlign=top;spacingLeft=4;spacingRight=4;overflow=hidden;rotatable=0;points=[[0,0.5],[1,0.5]];portConstraint=eastwest;whiteSpace=wrap;html=1;" parent="xlgzFOz0VYX2NlcNm7eb-19" vertex="1">
          <mxGeometry y="78" width="160" height="26" as="geometry" />
        </mxCell>
        <mxCell id="xlgzFOz0VYX2NlcNm7eb-31" value="- email: String" style="text;strokeColor=none;fillColor=none;align=left;verticalAlign=top;spacingLeft=4;spacingRight=4;overflow=hidden;rotatable=0;points=[[0,0.5],[1,0.5]];portConstraint=eastwest;whiteSpace=wrap;html=1;" parent="xlgzFOz0VYX2NlcNm7eb-19" vertex="1">
          <mxGeometry y="104" width="160" height="26" as="geometry" />
        </mxCell>
        <mxCell id="xlgzFOz0VYX2NlcNm7eb-81" value="- phone: String" style="text;strokeColor=none;fillColor=none;align=left;verticalAlign=top;spacingLeft=4;spacingRight=4;overflow=hidden;rotatable=0;points=[[0,0.5],[1,0.5]];portConstraint=eastwest;whiteSpace=wrap;html=1;" parent="xlgzFOz0VYX2NlcNm7eb-19" vertex="1">
          <mxGeometry y="130" width="160" height="26" as="geometry" />
        </mxCell>
        <mxCell id="xlgzFOz0VYX2NlcNm7eb-80" value="- signInStatus: String" style="text;strokeColor=none;fillColor=none;align=left;verticalAlign=top;spacingLeft=4;spacingRight=4;overflow=hidden;rotatable=0;points=[[0,0.5],[1,0.5]];portConstraint=eastwest;whiteSpace=wrap;html=1;" parent="xlgzFOz0VYX2NlcNm7eb-19" vertex="1">
          <mxGeometry y="156" width="160" height="26" as="geometry" />
        </mxCell>
        <mxCell id="xlgzFOz0VYX2NlcNm7eb-79" value="- role: UserRole" style="text;strokeColor=none;fillColor=none;align=left;verticalAlign=top;spacingLeft=4;spacingRight=4;overflow=hidden;rotatable=0;points=[[0,0.5],[1,0.5]];portConstraint=eastwest;whiteSpace=wrap;html=1;" parent="xlgzFOz0VYX2NlcNm7eb-19" vertex="1">
          <mxGeometry y="182" width="160" height="28" as="geometry" />
        </mxCell>
        <mxCell id="xlgzFOz0VYX2NlcNm7eb-77" value="- dateOfBirth: Date" style="text;strokeColor=none;fillColor=none;align=left;verticalAlign=top;spacingLeft=4;spacingRight=4;overflow=hidden;rotatable=0;points=[[0,0.5],[1,0.5]];portConstraint=eastwest;whiteSpace=wrap;html=1;" parent="xlgzFOz0VYX2NlcNm7eb-19" vertex="1">
          <mxGeometry y="210" width="160" height="26" as="geometry" />
        </mxCell>
        <mxCell id="xlgzFOz0VYX2NlcNm7eb-76" value="- fullName: String" style="text;strokeColor=none;fillColor=none;align=left;verticalAlign=top;spacingLeft=4;spacingRight=4;overflow=hidden;rotatable=0;points=[[0,0.5],[1,0.5]];portConstraint=eastwest;whiteSpace=wrap;html=1;" parent="xlgzFOz0VYX2NlcNm7eb-19" vertex="1">
          <mxGeometry y="236" width="160" height="26" as="geometry" />
        </mxCell>
        <mxCell id="xlgzFOz0VYX2NlcNm7eb-24" value="" style="line;strokeWidth=1;fillColor=none;align=left;verticalAlign=middle;spacingTop=-1;spacingLeft=3;spacingRight=3;rotatable=0;labelPosition=right;points=[];portConstraint=eastwest;strokeColor=inherit;" parent="xlgzFOz0VYX2NlcNm7eb-19" vertex="1">
          <mxGeometry y="262" width="160" height="8" as="geometry" />
        </mxCell>
        <mxCell id="xlgzFOz0VYX2NlcNm7eb-35" value="+ toString(): String" style="text;strokeColor=none;fillColor=none;align=left;verticalAlign=top;spacingLeft=4;spacingRight=4;overflow=hidden;rotatable=0;points=[[0,0.5],[1,0.5]];portConstraint=eastwest;whiteSpace=wrap;html=1;" parent="xlgzFOz0VYX2NlcNm7eb-19" vertex="1">
          <mxGeometry y="270" width="160" height="26" as="geometry" />
        </mxCell>
        <mxCell id="oRSVwbR3Z3SmRV7vV4Ph-11" style="edgeStyle=orthogonalEdgeStyle;rounded=0;orthogonalLoop=1;jettySize=auto;html=1;entryX=0.5;entryY=0;entryDx=0;entryDy=0;" edge="1" parent="1" source="xlgzFOz0VYX2NlcNm7eb-118" target="xlgzFOz0VYX2NlcNm7eb-277">
          <mxGeometry relative="1" as="geometry">
            <Array as="points">
              <mxPoint x="-90" y="742" />
              <mxPoint x="-90" y="2540" />
            </Array>
          </mxGeometry>
        </mxCell>
        <mxCell id="oRSVwbR3Z3SmRV7vV4Ph-12" value="Text" style="edgeLabel;html=1;align=center;verticalAlign=middle;resizable=0;points=[];" vertex="1" connectable="0" parent="oRSVwbR3Z3SmRV7vV4Ph-11">
          <mxGeometry x="-0.2799" y="-1" relative="1" as="geometry">
            <mxPoint as="offset" />
          </mxGeometry>
        </mxCell>
        <mxCell id="xlgzFOz0VYX2NlcNm7eb-118" value="AvailabilityStatus" style="swimlane;fontStyle=1;align=center;verticalAlign=top;childLayout=stackLayout;horizontal=1;startSize=26;horizontalStack=0;resizeParent=1;resizeParentMax=0;resizeLast=0;collapsible=1;marginBottom=0;whiteSpace=wrap;html=1;" parent="1" vertex="1">
          <mxGeometry x="250" y="660" width="200" height="164" as="geometry">
            <mxRectangle x="470" y="250" width="100" height="30" as="alternateBounds" />
          </mxGeometry>
        </mxCell>
        <mxCell id="xlgzFOz0VYX2NlcNm7eb-119" value="enum:" style="text;strokeColor=none;fillColor=none;align=left;verticalAlign=top;spacingLeft=4;spacingRight=4;overflow=hidden;rotatable=0;points=[[0,0.5],[1,0.5]];portConstraint=eastwest;whiteSpace=wrap;html=1;" parent="xlgzFOz0VYX2NlcNm7eb-118" vertex="1">
          <mxGeometry y="26" width="200" height="26" as="geometry" />
        </mxCell>
        <mxCell id="xlgzFOz0VYX2NlcNm7eb-120" value="- UNAVAILABLE" style="text;strokeColor=none;fillColor=none;align=left;verticalAlign=top;spacingLeft=4;spacingRight=4;overflow=hidden;rotatable=0;points=[[0,0.5],[1,0.5]];portConstraint=eastwest;whiteSpace=wrap;html=1;" parent="xlgzFOz0VYX2NlcNm7eb-118" vertex="1">
          <mxGeometry y="52" width="200" height="26" as="geometry" />
        </mxCell>
        <mxCell id="xlgzFOz0VYX2NlcNm7eb-122" value="- AVAILABLE" style="text;strokeColor=none;fillColor=none;align=left;verticalAlign=top;spacingLeft=4;spacingRight=4;overflow=hidden;rotatable=0;points=[[0,0.5],[1,0.5]];portConstraint=eastwest;whiteSpace=wrap;html=1;" parent="xlgzFOz0VYX2NlcNm7eb-118" vertex="1">
          <mxGeometry y="78" width="200" height="26" as="geometry" />
        </mxCell>
        <mxCell id="xlgzFOz0VYX2NlcNm7eb-123" value="" style="line;strokeWidth=1;fillColor=none;align=left;verticalAlign=middle;spacingTop=-1;spacingLeft=3;spacingRight=3;rotatable=0;labelPosition=right;points=[];portConstraint=eastwest;strokeColor=inherit;" parent="xlgzFOz0VYX2NlcNm7eb-118" vertex="1">
          <mxGeometry y="104" width="200" height="8" as="geometry" />
        </mxCell>
        <mxCell id="xlgzFOz0VYX2NlcNm7eb-124" value="+ values():&amp;nbsp;AvailabilityStatus[]" style="text;strokeColor=none;fillColor=none;align=left;verticalAlign=top;spacingLeft=4;spacingRight=4;overflow=hidden;rotatable=0;points=[[0,0.5],[1,0.5]];portConstraint=eastwest;whiteSpace=wrap;html=1;" parent="xlgzFOz0VYX2NlcNm7eb-118" vertex="1">
          <mxGeometry y="112" width="200" height="26" as="geometry" />
        </mxCell>
        <mxCell id="xlgzFOz0VYX2NlcNm7eb-125" value="+ valueOf(String):&amp;nbsp;AvailabilityStatus" style="text;strokeColor=none;fillColor=none;align=left;verticalAlign=top;spacingLeft=4;spacingRight=4;overflow=hidden;rotatable=0;points=[[0,0.5],[1,0.5]];portConstraint=eastwest;whiteSpace=wrap;html=1;" parent="xlgzFOz0VYX2NlcNm7eb-118" vertex="1">
          <mxGeometry y="138" width="200" height="26" as="geometry" />
        </mxCell>
        <mxCell id="xlgzFOz0VYX2NlcNm7eb-127" value="BaseUserSignoutDTO" style="swimlane;fontStyle=1;align=center;verticalAlign=top;childLayout=stackLayout;horizontal=1;startSize=26;horizontalStack=0;resizeParent=1;resizeParentMax=0;resizeLast=0;collapsible=1;marginBottom=0;whiteSpace=wrap;html=1;" parent="1" vertex="1">
          <mxGeometry x="480" y="660" width="200" height="86" as="geometry">
            <mxRectangle x="470" y="250" width="100" height="30" as="alternateBounds" />
          </mxGeometry>
        </mxCell>
        <mxCell id="xlgzFOz0VYX2NlcNm7eb-129" value="- id: Long" style="text;strokeColor=none;fillColor=none;align=left;verticalAlign=top;spacingLeft=4;spacingRight=4;overflow=hidden;rotatable=0;points=[[0,0.5],[1,0.5]];portConstraint=eastwest;whiteSpace=wrap;html=1;" parent="xlgzFOz0VYX2NlcNm7eb-127" vertex="1">
          <mxGeometry y="26" width="200" height="26" as="geometry" />
        </mxCell>
        <mxCell id="xlgzFOz0VYX2NlcNm7eb-130" value="- role: String" style="text;strokeColor=none;fillColor=none;align=left;verticalAlign=top;spacingLeft=4;spacingRight=4;overflow=hidden;rotatable=0;points=[[0,0.5],[1,0.5]];portConstraint=eastwest;whiteSpace=wrap;html=1;" parent="xlgzFOz0VYX2NlcNm7eb-127" vertex="1">
          <mxGeometry y="52" width="200" height="26" as="geometry" />
        </mxCell>
        <mxCell id="xlgzFOz0VYX2NlcNm7eb-131" value="" style="line;strokeWidth=1;fillColor=none;align=left;verticalAlign=middle;spacingTop=-1;spacingLeft=3;spacingRight=3;rotatable=0;labelPosition=right;points=[];portConstraint=eastwest;strokeColor=inherit;" parent="xlgzFOz0VYX2NlcNm7eb-127" vertex="1">
          <mxGeometry y="78" width="200" height="8" as="geometry" />
        </mxCell>
        <mxCell id="xlgzFOz0VYX2NlcNm7eb-134" value="BaseUserSigninDTO" style="swimlane;fontStyle=1;align=center;verticalAlign=top;childLayout=stackLayout;horizontal=1;startSize=26;horizontalStack=0;resizeParent=1;resizeParentMax=0;resizeLast=0;collapsible=1;marginBottom=0;whiteSpace=wrap;html=1;" parent="1" vertex="1">
          <mxGeometry x="1450" y="150" width="200" height="138" as="geometry">
            <mxRectangle x="470" y="250" width="100" height="30" as="alternateBounds" />
          </mxGeometry>
        </mxCell>
        <mxCell id="xlgzFOz0VYX2NlcNm7eb-135" value="- username: String" style="text;strokeColor=none;fillColor=none;align=left;verticalAlign=top;spacingLeft=4;spacingRight=4;overflow=hidden;rotatable=0;points=[[0,0.5],[1,0.5]];portConstraint=eastwest;whiteSpace=wrap;html=1;" parent="xlgzFOz0VYX2NlcNm7eb-134" vertex="1">
          <mxGeometry y="26" width="200" height="26" as="geometry" />
        </mxCell>
        <mxCell id="xlgzFOz0VYX2NlcNm7eb-136" value="- phone: String" style="text;strokeColor=none;fillColor=none;align=left;verticalAlign=top;spacingLeft=4;spacingRight=4;overflow=hidden;rotatable=0;points=[[0,0.5],[1,0.5]];portConstraint=eastwest;whiteSpace=wrap;html=1;" parent="xlgzFOz0VYX2NlcNm7eb-134" vertex="1">
          <mxGeometry y="52" width="200" height="26" as="geometry" />
        </mxCell>
        <mxCell id="xlgzFOz0VYX2NlcNm7eb-139" value="- password: String" style="text;strokeColor=none;fillColor=none;align=left;verticalAlign=top;spacingLeft=4;spacingRight=4;overflow=hidden;rotatable=0;points=[[0,0.5],[1,0.5]];portConstraint=eastwest;whiteSpace=wrap;html=1;" parent="xlgzFOz0VYX2NlcNm7eb-134" vertex="1">
          <mxGeometry y="78" width="200" height="26" as="geometry" />
        </mxCell>
        <mxCell id="xlgzFOz0VYX2NlcNm7eb-138" value="- email: String" style="text;strokeColor=none;fillColor=none;align=left;verticalAlign=top;spacingLeft=4;spacingRight=4;overflow=hidden;rotatable=0;points=[[0,0.5],[1,0.5]];portConstraint=eastwest;whiteSpace=wrap;html=1;" parent="xlgzFOz0VYX2NlcNm7eb-134" vertex="1">
          <mxGeometry y="104" width="200" height="26" as="geometry" />
        </mxCell>
        <mxCell id="xlgzFOz0VYX2NlcNm7eb-137" value="" style="line;strokeWidth=1;fillColor=none;align=left;verticalAlign=middle;spacingTop=-1;spacingLeft=3;spacingRight=3;rotatable=0;labelPosition=right;points=[];portConstraint=eastwest;strokeColor=inherit;" parent="xlgzFOz0VYX2NlcNm7eb-134" vertex="1">
          <mxGeometry y="130" width="200" height="8" as="geometry" />
        </mxCell>
        <mxCell id="oRSVwbR3Z3SmRV7vV4Ph-51" style="edgeStyle=orthogonalEdgeStyle;rounded=0;orthogonalLoop=1;jettySize=auto;html=1;entryX=0;entryY=0.5;entryDx=0;entryDy=0;dashed=1;" edge="1" parent="1" source="xlgzFOz0VYX2NlcNm7eb-140" target="xlgzFOz0VYX2NlcNm7eb-136">
          <mxGeometry relative="1" as="geometry" />
        </mxCell>
        <mxCell id="xlgzFOz0VYX2NlcNm7eb-140" value="AuthService&amp;lt;T&amp;gt;" style="swimlane;fontStyle=1;align=center;verticalAlign=top;childLayout=stackLayout;horizontal=1;startSize=26;horizontalStack=0;resizeParent=1;resizeParentMax=0;resizeLast=0;collapsible=1;marginBottom=0;whiteSpace=wrap;html=1;" parent="1" vertex="1">
          <mxGeometry x="1290" y="330" width="160" height="60" as="geometry">
            <mxRectangle x="470" y="250" width="100" height="30" as="alternateBounds" />
          </mxGeometry>
        </mxCell>
        <mxCell id="xlgzFOz0VYX2NlcNm7eb-145" value="" style="line;strokeWidth=1;fillColor=none;align=left;verticalAlign=middle;spacingTop=-1;spacingLeft=3;spacingRight=3;rotatable=0;labelPosition=right;points=[];portConstraint=eastwest;strokeColor=inherit;" parent="xlgzFOz0VYX2NlcNm7eb-140" vertex="1">
          <mxGeometry y="26" width="160" height="8" as="geometry" />
        </mxCell>
        <mxCell id="xlgzFOz0VYX2NlcNm7eb-146" value="+ signin(): T" style="text;strokeColor=none;fillColor=none;align=left;verticalAlign=top;spacingLeft=4;spacingRight=4;overflow=hidden;rotatable=0;points=[[0,0.5],[1,0.5]];portConstraint=eastwest;whiteSpace=wrap;html=1;" parent="xlgzFOz0VYX2NlcNm7eb-140" vertex="1">
          <mxGeometry y="34" width="160" height="26" as="geometry" />
        </mxCell>
        <mxCell id="xlgzFOz0VYX2NlcNm7eb-148" value="BasePassengerServiceDTO" style="swimlane;fontStyle=1;align=center;verticalAlign=top;childLayout=stackLayout;horizontal=1;startSize=26;horizontalStack=0;resizeParent=1;resizeParentMax=0;resizeLast=0;collapsible=1;marginBottom=0;whiteSpace=wrap;html=1;" parent="1" vertex="1">
          <mxGeometry x="1620" y="320" width="190" height="242" as="geometry">
            <mxRectangle x="470" y="250" width="100" height="30" as="alternateBounds" />
          </mxGeometry>
        </mxCell>
        <mxCell id="xlgzFOz0VYX2NlcNm7eb-149" value="- id: Long" style="text;strokeColor=none;fillColor=none;align=left;verticalAlign=top;spacingLeft=4;spacingRight=4;overflow=hidden;rotatable=0;points=[[0,0.5],[1,0.5]];portConstraint=eastwest;whiteSpace=wrap;html=1;container=0;" parent="xlgzFOz0VYX2NlcNm7eb-148" vertex="1">
          <mxGeometry y="26" width="190" height="26" as="geometry" />
        </mxCell>
        <mxCell id="xlgzFOz0VYX2NlcNm7eb-150" value="- username: String" style="text;strokeColor=none;fillColor=none;align=left;verticalAlign=top;spacingLeft=4;spacingRight=4;overflow=hidden;rotatable=0;points=[[0,0.5],[1,0.5]];portConstraint=eastwest;whiteSpace=wrap;html=1;" parent="xlgzFOz0VYX2NlcNm7eb-148" vertex="1">
          <mxGeometry y="52" width="190" height="26" as="geometry" />
        </mxCell>
        <mxCell id="xlgzFOz0VYX2NlcNm7eb-151" value="- password: String" style="text;strokeColor=none;fillColor=none;align=left;verticalAlign=top;spacingLeft=4;spacingRight=4;overflow=hidden;rotatable=0;points=[[0,0.5],[1,0.5]];portConstraint=eastwest;whiteSpace=wrap;html=1;" parent="xlgzFOz0VYX2NlcNm7eb-148" vertex="1">
          <mxGeometry y="78" width="190" height="26" as="geometry" />
        </mxCell>
        <mxCell id="xlgzFOz0VYX2NlcNm7eb-152" value="- email: String" style="text;strokeColor=none;fillColor=none;align=left;verticalAlign=top;spacingLeft=4;spacingRight=4;overflow=hidden;rotatable=0;points=[[0,0.5],[1,0.5]];portConstraint=eastwest;whiteSpace=wrap;html=1;" parent="xlgzFOz0VYX2NlcNm7eb-148" vertex="1">
          <mxGeometry y="104" width="190" height="26" as="geometry" />
        </mxCell>
        <mxCell id="xlgzFOz0VYX2NlcNm7eb-153" value="- phone: String" style="text;strokeColor=none;fillColor=none;align=left;verticalAlign=top;spacingLeft=4;spacingRight=4;overflow=hidden;rotatable=0;points=[[0,0.5],[1,0.5]];portConstraint=eastwest;whiteSpace=wrap;html=1;" parent="xlgzFOz0VYX2NlcNm7eb-148" vertex="1">
          <mxGeometry y="130" width="190" height="26" as="geometry" />
        </mxCell>
        <mxCell id="xlgzFOz0VYX2NlcNm7eb-154" value="- membership: String" style="text;strokeColor=none;fillColor=none;align=left;verticalAlign=top;spacingLeft=4;spacingRight=4;overflow=hidden;rotatable=0;points=[[0,0.5],[1,0.5]];portConstraint=eastwest;whiteSpace=wrap;html=1;" parent="xlgzFOz0VYX2NlcNm7eb-148" vertex="1">
          <mxGeometry y="156" width="190" height="26" as="geometry" />
        </mxCell>
        <mxCell id="xlgzFOz0VYX2NlcNm7eb-156" value="- homeAddress: String" style="text;strokeColor=none;fillColor=none;align=left;verticalAlign=top;spacingLeft=4;spacingRight=4;overflow=hidden;rotatable=0;points=[[0,0.5],[1,0.5]];portConstraint=eastwest;whiteSpace=wrap;html=1;" parent="xlgzFOz0VYX2NlcNm7eb-148" vertex="1">
          <mxGeometry y="182" width="190" height="26" as="geometry" />
        </mxCell>
        <mxCell id="xlgzFOz0VYX2NlcNm7eb-157" value="- fullName: String" style="text;strokeColor=none;fillColor=none;align=left;verticalAlign=top;spacingLeft=4;spacingRight=4;overflow=hidden;rotatable=0;points=[[0,0.5],[1,0.5]];portConstraint=eastwest;whiteSpace=wrap;html=1;" parent="xlgzFOz0VYX2NlcNm7eb-148" vertex="1">
          <mxGeometry y="208" width="190" height="26" as="geometry" />
        </mxCell>
        <mxCell id="xlgzFOz0VYX2NlcNm7eb-158" value="" style="line;strokeWidth=1;fillColor=none;align=left;verticalAlign=middle;spacingTop=-1;spacingLeft=3;spacingRight=3;rotatable=0;labelPosition=right;points=[];portConstraint=eastwest;strokeColor=inherit;" parent="xlgzFOz0VYX2NlcNm7eb-148" vertex="1">
          <mxGeometry y="234" width="190" height="8" as="geometry" />
        </mxCell>
        <mxCell id="xlgzFOz0VYX2NlcNm7eb-160" value="BaseUserSignupDTO" style="swimlane;fontStyle=1;align=center;verticalAlign=top;childLayout=stackLayout;horizontal=1;startSize=26;horizontalStack=0;resizeParent=1;resizeParentMax=0;resizeLast=0;collapsible=1;marginBottom=0;whiteSpace=wrap;html=1;" parent="1" vertex="1">
          <mxGeometry x="-280" y="1500" width="160" height="138" as="geometry">
            <mxRectangle x="470" y="250" width="100" height="30" as="alternateBounds" />
          </mxGeometry>
        </mxCell>
        <mxCell id="xlgzFOz0VYX2NlcNm7eb-162" value="- username: String" style="text;strokeColor=none;fillColor=none;align=left;verticalAlign=top;spacingLeft=4;spacingRight=4;overflow=hidden;rotatable=0;points=[[0,0.5],[1,0.5]];portConstraint=eastwest;whiteSpace=wrap;html=1;" parent="xlgzFOz0VYX2NlcNm7eb-160" vertex="1">
          <mxGeometry y="26" width="160" height="26" as="geometry" />
        </mxCell>
        <mxCell id="xlgzFOz0VYX2NlcNm7eb-163" value="- password: String" style="text;strokeColor=none;fillColor=none;align=left;verticalAlign=top;spacingLeft=4;spacingRight=4;overflow=hidden;rotatable=0;points=[[0,0.5],[1,0.5]];portConstraint=eastwest;whiteSpace=wrap;html=1;" parent="xlgzFOz0VYX2NlcNm7eb-160" vertex="1">
          <mxGeometry y="52" width="160" height="26" as="geometry" />
        </mxCell>
        <mxCell id="xlgzFOz0VYX2NlcNm7eb-164" value="- email: String" style="text;strokeColor=none;fillColor=none;align=left;verticalAlign=top;spacingLeft=4;spacingRight=4;overflow=hidden;rotatable=0;points=[[0,0.5],[1,0.5]];portConstraint=eastwest;whiteSpace=wrap;html=1;" parent="xlgzFOz0VYX2NlcNm7eb-160" vertex="1">
          <mxGeometry y="78" width="160" height="26" as="geometry" />
        </mxCell>
        <mxCell id="xlgzFOz0VYX2NlcNm7eb-168" value="- dateOfBirth: Date" style="text;strokeColor=none;fillColor=none;align=left;verticalAlign=top;spacingLeft=4;spacingRight=4;overflow=hidden;rotatable=0;points=[[0,0.5],[1,0.5]];portConstraint=eastwest;whiteSpace=wrap;html=1;" parent="xlgzFOz0VYX2NlcNm7eb-160" vertex="1">
          <mxGeometry y="104" width="160" height="26" as="geometry" />
        </mxCell>
        <mxCell id="xlgzFOz0VYX2NlcNm7eb-170" value="" style="line;strokeWidth=1;fillColor=none;align=left;verticalAlign=middle;spacingTop=-1;spacingLeft=3;spacingRight=3;rotatable=0;labelPosition=right;points=[];portConstraint=eastwest;strokeColor=inherit;" parent="xlgzFOz0VYX2NlcNm7eb-160" vertex="1">
          <mxGeometry y="130" width="160" height="8" as="geometry" />
        </mxCell>
        <mxCell id="xlgzFOz0VYX2NlcNm7eb-184" value="MembershipType" style="swimlane;fontStyle=1;align=center;verticalAlign=top;childLayout=stackLayout;horizontal=1;startSize=26;horizontalStack=0;resizeParent=1;resizeParentMax=0;resizeLast=0;collapsible=1;marginBottom=0;whiteSpace=wrap;html=1;" parent="1" vertex="1">
          <mxGeometry x="-70" y="1500" width="200" height="190" as="geometry">
            <mxRectangle x="470" y="250" width="100" height="30" as="alternateBounds" />
          </mxGeometry>
        </mxCell>
        <mxCell id="xlgzFOz0VYX2NlcNm7eb-185" value="enum:" style="text;strokeColor=none;fillColor=none;align=left;verticalAlign=top;spacingLeft=4;spacingRight=4;overflow=hidden;rotatable=0;points=[[0,0.5],[1,0.5]];portConstraint=eastwest;whiteSpace=wrap;html=1;" parent="xlgzFOz0VYX2NlcNm7eb-184" vertex="1">
          <mxGeometry y="26" width="200" height="26" as="geometry" />
        </mxCell>
        <mxCell id="xlgzFOz0VYX2NlcNm7eb-186" value="- BRONZE" style="text;strokeColor=none;fillColor=none;align=left;verticalAlign=top;spacingLeft=4;spacingRight=4;overflow=hidden;rotatable=0;points=[[0,0.5],[1,0.5]];portConstraint=eastwest;whiteSpace=wrap;html=1;" parent="xlgzFOz0VYX2NlcNm7eb-184" vertex="1">
          <mxGeometry y="52" width="200" height="26" as="geometry" />
        </mxCell>
        <mxCell id="xlgzFOz0VYX2NlcNm7eb-187" value="- GOLD" style="text;strokeColor=none;fillColor=none;align=left;verticalAlign=top;spacingLeft=4;spacingRight=4;overflow=hidden;rotatable=0;points=[[0,0.5],[1,0.5]];portConstraint=eastwest;whiteSpace=wrap;html=1;" parent="xlgzFOz0VYX2NlcNm7eb-184" vertex="1">
          <mxGeometry y="78" width="200" height="26" as="geometry" />
        </mxCell>
        <mxCell id="xlgzFOz0VYX2NlcNm7eb-188" value="- SILVER" style="text;strokeColor=none;fillColor=none;align=left;verticalAlign=top;spacingLeft=4;spacingRight=4;overflow=hidden;rotatable=0;points=[[0,0.5],[1,0.5]];portConstraint=eastwest;whiteSpace=wrap;html=1;" parent="xlgzFOz0VYX2NlcNm7eb-184" vertex="1">
          <mxGeometry y="104" width="200" height="26" as="geometry" />
        </mxCell>
        <mxCell id="xlgzFOz0VYX2NlcNm7eb-189" value="" style="line;strokeWidth=1;fillColor=none;align=left;verticalAlign=middle;spacingTop=-1;spacingLeft=3;spacingRight=3;rotatable=0;labelPosition=right;points=[];portConstraint=eastwest;strokeColor=inherit;" parent="xlgzFOz0VYX2NlcNm7eb-184" vertex="1">
          <mxGeometry y="130" width="200" height="8" as="geometry" />
        </mxCell>
        <mxCell id="xlgzFOz0VYX2NlcNm7eb-190" value="+ values(): MembershipType[]" style="text;strokeColor=none;fillColor=none;align=left;verticalAlign=top;spacingLeft=4;spacingRight=4;overflow=hidden;rotatable=0;points=[[0,0.5],[1,0.5]];portConstraint=eastwest;whiteSpace=wrap;html=1;" parent="xlgzFOz0VYX2NlcNm7eb-184" vertex="1">
          <mxGeometry y="138" width="200" height="26" as="geometry" />
        </mxCell>
        <mxCell id="xlgzFOz0VYX2NlcNm7eb-191" value="+ valueOf(String): MembershipType" style="text;strokeColor=none;fillColor=none;align=left;verticalAlign=top;spacingLeft=4;spacingRight=4;overflow=hidden;rotatable=0;points=[[0,0.5],[1,0.5]];portConstraint=eastwest;whiteSpace=wrap;html=1;" parent="xlgzFOz0VYX2NlcNm7eb-184" vertex="1">
          <mxGeometry y="164" width="200" height="26" as="geometry" />
        </mxCell>
        <mxCell id="xlgzFOz0VYX2NlcNm7eb-192" value="LicenseState" style="swimlane;fontStyle=1;align=center;verticalAlign=top;childLayout=stackLayout;horizontal=1;startSize=26;horizontalStack=0;resizeParent=1;resizeParentMax=0;resizeLast=0;collapsible=1;marginBottom=0;whiteSpace=wrap;html=1;" parent="1" vertex="1">
          <mxGeometry x="170" y="1500" width="200" height="164" as="geometry">
            <mxRectangle x="470" y="250" width="100" height="30" as="alternateBounds" />
          </mxGeometry>
        </mxCell>
        <mxCell id="xlgzFOz0VYX2NlcNm7eb-193" value="enum:" style="text;strokeColor=none;fillColor=none;align=left;verticalAlign=top;spacingLeft=4;spacingRight=4;overflow=hidden;rotatable=0;points=[[0,0.5],[1,0.5]];portConstraint=eastwest;whiteSpace=wrap;html=1;" parent="xlgzFOz0VYX2NlcNm7eb-192" vertex="1">
          <mxGeometry y="26" width="200" height="26" as="geometry" />
        </mxCell>
        <mxCell id="xlgzFOz0VYX2NlcNm7eb-194" value="- VALID" style="text;strokeColor=none;fillColor=none;align=left;verticalAlign=top;spacingLeft=4;spacingRight=4;overflow=hidden;rotatable=0;points=[[0,0.5],[1,0.5]];portConstraint=eastwest;whiteSpace=wrap;html=1;" parent="xlgzFOz0VYX2NlcNm7eb-192" vertex="1">
          <mxGeometry y="52" width="200" height="26" as="geometry" />
        </mxCell>
        <mxCell id="xlgzFOz0VYX2NlcNm7eb-195" value="- EXPIRED" style="text;strokeColor=none;fillColor=none;align=left;verticalAlign=top;spacingLeft=4;spacingRight=4;overflow=hidden;rotatable=0;points=[[0,0.5],[1,0.5]];portConstraint=eastwest;whiteSpace=wrap;html=1;" parent="xlgzFOz0VYX2NlcNm7eb-192" vertex="1">
          <mxGeometry y="78" width="200" height="26" as="geometry" />
        </mxCell>
        <mxCell id="xlgzFOz0VYX2NlcNm7eb-197" value="" style="line;strokeWidth=1;fillColor=none;align=left;verticalAlign=middle;spacingTop=-1;spacingLeft=3;spacingRight=3;rotatable=0;labelPosition=right;points=[];portConstraint=eastwest;strokeColor=inherit;" parent="xlgzFOz0VYX2NlcNm7eb-192" vertex="1">
          <mxGeometry y="104" width="200" height="8" as="geometry" />
        </mxCell>
        <mxCell id="xlgzFOz0VYX2NlcNm7eb-198" value="+ values():&amp;nbsp;LicenseState[]" style="text;strokeColor=none;fillColor=none;align=left;verticalAlign=top;spacingLeft=4;spacingRight=4;overflow=hidden;rotatable=0;points=[[0,0.5],[1,0.5]];portConstraint=eastwest;whiteSpace=wrap;html=1;" parent="xlgzFOz0VYX2NlcNm7eb-192" vertex="1">
          <mxGeometry y="112" width="200" height="26" as="geometry" />
        </mxCell>
        <mxCell id="xlgzFOz0VYX2NlcNm7eb-199" value="+ valueOf(String):&amp;nbsp;LicenseState" style="text;strokeColor=none;fillColor=none;align=left;verticalAlign=top;spacingLeft=4;spacingRight=4;overflow=hidden;rotatable=0;points=[[0,0.5],[1,0.5]];portConstraint=eastwest;whiteSpace=wrap;html=1;" parent="xlgzFOz0VYX2NlcNm7eb-192" vertex="1">
          <mxGeometry y="138" width="200" height="26" as="geometry" />
        </mxCell>
        <mxCell id="xlgzFOz0VYX2NlcNm7eb-200" value="VehicleType" style="swimlane;fontStyle=1;align=center;verticalAlign=top;childLayout=stackLayout;horizontal=1;startSize=26;horizontalStack=0;resizeParent=1;resizeParentMax=0;resizeLast=0;collapsible=1;marginBottom=0;whiteSpace=wrap;html=1;" parent="1" vertex="1">
          <mxGeometry x="420" y="1500" width="200" height="216" as="geometry">
            <mxRectangle x="470" y="250" width="100" height="30" as="alternateBounds" />
          </mxGeometry>
        </mxCell>
        <mxCell id="xlgzFOz0VYX2NlcNm7eb-201" value="enum:" style="text;strokeColor=none;fillColor=none;align=left;verticalAlign=top;spacingLeft=4;spacingRight=4;overflow=hidden;rotatable=0;points=[[0,0.5],[1,0.5]];portConstraint=eastwest;whiteSpace=wrap;html=1;" parent="xlgzFOz0VYX2NlcNm7eb-200" vertex="1">
          <mxGeometry y="26" width="200" height="26" as="geometry" />
        </mxCell>
        <mxCell id="xlgzFOz0VYX2NlcNm7eb-202" value="- VAN" style="text;strokeColor=none;fillColor=none;align=left;verticalAlign=top;spacingLeft=4;spacingRight=4;overflow=hidden;rotatable=0;points=[[0,0.5],[1,0.5]];portConstraint=eastwest;whiteSpace=wrap;html=1;" parent="xlgzFOz0VYX2NlcNm7eb-200" vertex="1">
          <mxGeometry y="52" width="200" height="26" as="geometry" />
        </mxCell>
        <mxCell id="xlgzFOz0VYX2NlcNm7eb-203" value="- SEDAN" style="text;strokeColor=none;fillColor=none;align=left;verticalAlign=top;spacingLeft=4;spacingRight=4;overflow=hidden;rotatable=0;points=[[0,0.5],[1,0.5]];portConstraint=eastwest;whiteSpace=wrap;html=1;" parent="xlgzFOz0VYX2NlcNm7eb-200" vertex="1">
          <mxGeometry y="78" width="200" height="26" as="geometry" />
        </mxCell>
        <mxCell id="xlgzFOz0VYX2NlcNm7eb-204" value="- TRUCK" style="text;strokeColor=none;fillColor=none;align=left;verticalAlign=top;spacingLeft=4;spacingRight=4;overflow=hidden;rotatable=0;points=[[0,0.5],[1,0.5]];portConstraint=eastwest;whiteSpace=wrap;html=1;" parent="xlgzFOz0VYX2NlcNm7eb-200" vertex="1">
          <mxGeometry y="104" width="200" height="26" as="geometry" />
        </mxCell>
        <mxCell id="xlgzFOz0VYX2NlcNm7eb-208" value="- SUV" style="text;strokeColor=none;fillColor=none;align=left;verticalAlign=top;spacingLeft=4;spacingRight=4;overflow=hidden;rotatable=0;points=[[0,0.5],[1,0.5]];portConstraint=eastwest;whiteSpace=wrap;html=1;" parent="xlgzFOz0VYX2NlcNm7eb-200" vertex="1">
          <mxGeometry y="130" width="200" height="26" as="geometry" />
        </mxCell>
        <mxCell id="xlgzFOz0VYX2NlcNm7eb-205" value="" style="line;strokeWidth=1;fillColor=none;align=left;verticalAlign=middle;spacingTop=-1;spacingLeft=3;spacingRight=3;rotatable=0;labelPosition=right;points=[];portConstraint=eastwest;strokeColor=inherit;" parent="xlgzFOz0VYX2NlcNm7eb-200" vertex="1">
          <mxGeometry y="156" width="200" height="8" as="geometry" />
        </mxCell>
        <mxCell id="xlgzFOz0VYX2NlcNm7eb-206" value="+ values():&amp;nbsp;VehicleType[]" style="text;strokeColor=none;fillColor=none;align=left;verticalAlign=top;spacingLeft=4;spacingRight=4;overflow=hidden;rotatable=0;points=[[0,0.5],[1,0.5]];portConstraint=eastwest;whiteSpace=wrap;html=1;" parent="xlgzFOz0VYX2NlcNm7eb-200" vertex="1">
          <mxGeometry y="164" width="200" height="26" as="geometry" />
        </mxCell>
        <mxCell id="xlgzFOz0VYX2NlcNm7eb-207" value="+ valueOf(String):&amp;nbsp;VehicleType" style="text;strokeColor=none;fillColor=none;align=left;verticalAlign=top;spacingLeft=4;spacingRight=4;overflow=hidden;rotatable=0;points=[[0,0.5],[1,0.5]];portConstraint=eastwest;whiteSpace=wrap;html=1;" parent="xlgzFOz0VYX2NlcNm7eb-200" vertex="1">
          <mxGeometry y="190" width="200" height="26" as="geometry" />
        </mxCell>
        <mxCell id="xlgzFOz0VYX2NlcNm7eb-209" value="UserRepository&amp;lt;T&amp;gt;" style="swimlane;fontStyle=1;align=center;verticalAlign=top;childLayout=stackLayout;horizontal=1;startSize=26;horizontalStack=0;resizeParent=1;resizeParentMax=0;resizeLast=0;collapsible=1;marginBottom=0;whiteSpace=wrap;html=1;" parent="1" vertex="1">
          <mxGeometry x="690" y="1500" width="390" height="112" as="geometry">
            <mxRectangle x="470" y="250" width="100" height="30" as="alternateBounds" />
          </mxGeometry>
        </mxCell>
        <mxCell id="xlgzFOz0VYX2NlcNm7eb-215" value="" style="line;strokeWidth=1;fillColor=none;align=left;verticalAlign=middle;spacingTop=-1;spacingLeft=3;spacingRight=3;rotatable=0;labelPosition=right;points=[];portConstraint=eastwest;strokeColor=inherit;" parent="xlgzFOz0VYX2NlcNm7eb-209" vertex="1">
          <mxGeometry y="26" width="390" height="8" as="geometry" />
        </mxCell>
        <mxCell id="xlgzFOz0VYX2NlcNm7eb-216" value="+&amp;nbsp;updateSignInStatusByUsername(String,String,String,String&lt;span style=&quot;background-color: initial;&quot;&gt;):&amp;nbsp;void&lt;/span&gt;" style="text;strokeColor=none;fillColor=none;align=left;verticalAlign=top;spacingLeft=4;spacingRight=4;overflow=hidden;rotatable=0;points=[[0,0.5],[1,0.5]];portConstraint=eastwest;whiteSpace=wrap;html=1;" parent="xlgzFOz0VYX2NlcNm7eb-209" vertex="1">
          <mxGeometry y="34" width="390" height="26" as="geometry" />
        </mxCell>
        <mxCell id="xlgzFOz0VYX2NlcNm7eb-211" value="+&amp;nbsp;findFirstByUsernameOrEmailOrPhone(String,String,String): T" style="text;strokeColor=none;fillColor=none;align=left;verticalAlign=top;spacingLeft=4;spacingRight=4;overflow=hidden;rotatable=0;points=[[0,0.5],[1,0.5]];portConstraint=eastwest;whiteSpace=wrap;html=1;" parent="xlgzFOz0VYX2NlcNm7eb-209" vertex="1">
          <mxGeometry y="60" width="390" height="26" as="geometry" />
        </mxCell>
        <mxCell id="xlgzFOz0VYX2NlcNm7eb-217" value="+&amp;nbsp;updateSignInStatusByID(Long,String&lt;span style=&quot;background-color: initial;&quot;&gt;):&amp;nbsp;void&lt;/span&gt;" style="text;strokeColor=none;fillColor=none;align=left;verticalAlign=top;spacingLeft=4;spacingRight=4;overflow=hidden;rotatable=0;points=[[0,0.5],[1,0.5]];portConstraint=eastwest;whiteSpace=wrap;html=1;" parent="xlgzFOz0VYX2NlcNm7eb-209" vertex="1">
          <mxGeometry y="86" width="390" height="26" as="geometry" />
        </mxCell>
        <mxCell id="xlgzFOz0VYX2NlcNm7eb-218" value="BaseDriverServiceDTO" style="swimlane;fontStyle=1;align=center;verticalAlign=top;childLayout=stackLayout;horizontal=1;startSize=26;horizontalStack=0;resizeParent=1;resizeParentMax=0;resizeLast=0;collapsible=1;marginBottom=0;whiteSpace=wrap;html=1;" parent="1" vertex="1">
          <mxGeometry x="1540" y="1170" width="250" height="476" as="geometry">
            <mxRectangle x="470" y="250" width="100" height="30" as="alternateBounds" />
          </mxGeometry>
        </mxCell>
        <mxCell id="xlgzFOz0VYX2NlcNm7eb-219" value="- id: Long" style="text;strokeColor=none;fillColor=none;align=left;verticalAlign=top;spacingLeft=4;spacingRight=4;overflow=hidden;rotatable=0;points=[[0,0.5],[1,0.5]];portConstraint=eastwest;whiteSpace=wrap;html=1;container=0;" parent="xlgzFOz0VYX2NlcNm7eb-218" vertex="1">
          <mxGeometry y="26" width="250" height="26" as="geometry" />
        </mxCell>
        <mxCell id="xlgzFOz0VYX2NlcNm7eb-220" value="- username: String" style="text;strokeColor=none;fillColor=none;align=left;verticalAlign=top;spacingLeft=4;spacingRight=4;overflow=hidden;rotatable=0;points=[[0,0.5],[1,0.5]];portConstraint=eastwest;whiteSpace=wrap;html=1;" parent="xlgzFOz0VYX2NlcNm7eb-218" vertex="1">
          <mxGeometry y="52" width="250" height="26" as="geometry" />
        </mxCell>
        <mxCell id="xlgzFOz0VYX2NlcNm7eb-221" value="- password: String" style="text;strokeColor=none;fillColor=none;align=left;verticalAlign=top;spacingLeft=4;spacingRight=4;overflow=hidden;rotatable=0;points=[[0,0.5],[1,0.5]];portConstraint=eastwest;whiteSpace=wrap;html=1;" parent="xlgzFOz0VYX2NlcNm7eb-218" vertex="1">
          <mxGeometry y="78" width="250" height="26" as="geometry" />
        </mxCell>
        <mxCell id="xlgzFOz0VYX2NlcNm7eb-222" value="- email: String" style="text;strokeColor=none;fillColor=none;align=left;verticalAlign=top;spacingLeft=4;spacingRight=4;overflow=hidden;rotatable=0;points=[[0,0.5],[1,0.5]];portConstraint=eastwest;whiteSpace=wrap;html=1;" parent="xlgzFOz0VYX2NlcNm7eb-218" vertex="1">
          <mxGeometry y="104" width="250" height="26" as="geometry" />
        </mxCell>
        <mxCell id="xlgzFOz0VYX2NlcNm7eb-223" value="- phone: String" style="text;strokeColor=none;fillColor=none;align=left;verticalAlign=top;spacingLeft=4;spacingRight=4;overflow=hidden;rotatable=0;points=[[0,0.5],[1,0.5]];portConstraint=eastwest;whiteSpace=wrap;html=1;" parent="xlgzFOz0VYX2NlcNm7eb-218" vertex="1">
          <mxGeometry y="130" width="250" height="26" as="geometry" />
        </mxCell>
        <mxCell id="xlgzFOz0VYX2NlcNm7eb-226" value="- fullName: String" style="text;strokeColor=none;fillColor=none;align=left;verticalAlign=top;spacingLeft=4;spacingRight=4;overflow=hidden;rotatable=0;points=[[0,0.5],[1,0.5]];portConstraint=eastwest;whiteSpace=wrap;html=1;" parent="xlgzFOz0VYX2NlcNm7eb-218" vertex="1">
          <mxGeometry y="156" width="250" height="26" as="geometry" />
        </mxCell>
        <mxCell id="xlgzFOz0VYX2NlcNm7eb-241" value="- vehicleLicenseExpireDate: Date" style="text;strokeColor=none;fillColor=none;align=left;verticalAlign=top;spacingLeft=4;spacingRight=4;overflow=hidden;rotatable=0;points=[[0,0.5],[1,0.5]];portConstraint=eastwest;whiteSpace=wrap;html=1;" parent="xlgzFOz0VYX2NlcNm7eb-218" vertex="1">
          <mxGeometry y="182" width="250" height="26" as="geometry" />
        </mxCell>
        <mxCell id="xlgzFOz0VYX2NlcNm7eb-240" value="&lt;span style=&quot;color: rgb(0, 0, 0); font-family: Helvetica; font-size: 12px; font-style: normal; font-variant-ligatures: normal; font-variant-caps: normal; font-weight: 400; letter-spacing: normal; orphans: 2; text-align: left; text-indent: 0px; text-transform: none; widows: 2; word-spacing: 0px; -webkit-text-stroke-width: 0px; background-color: rgb(251, 251, 251); text-decoration-thickness: initial; text-decoration-style: initial; text-decoration-color: initial; float: none; display: inline !important;&quot;&gt;- vehicleLicensePlateNumber: String&lt;/span&gt;&lt;br&gt;" style="text;strokeColor=none;fillColor=none;align=left;verticalAlign=top;spacingLeft=4;spacingRight=4;overflow=hidden;rotatable=0;points=[[0,0.5],[1,0.5]];portConstraint=eastwest;whiteSpace=wrap;html=1;" parent="xlgzFOz0VYX2NlcNm7eb-218" vertex="1">
          <mxGeometry y="208" width="250" height="26" as="geometry" />
        </mxCell>
        <mxCell id="xlgzFOz0VYX2NlcNm7eb-239" value="- licenseState: String" style="text;strokeColor=none;fillColor=none;align=left;verticalAlign=top;spacingLeft=4;spacingRight=4;overflow=hidden;rotatable=0;points=[[0,0.5],[1,0.5]];portConstraint=eastwest;whiteSpace=wrap;html=1;" parent="xlgzFOz0VYX2NlcNm7eb-218" vertex="1">
          <mxGeometry y="234" width="250" height="26" as="geometry" />
        </mxCell>
        <mxCell id="xlgzFOz0VYX2NlcNm7eb-238" value="- vehicleColor:&amp;nbsp;String" style="text;strokeColor=none;fillColor=none;align=left;verticalAlign=top;spacingLeft=4;spacingRight=4;overflow=hidden;rotatable=0;points=[[0,0.5],[1,0.5]];portConstraint=eastwest;whiteSpace=wrap;html=1;" parent="xlgzFOz0VYX2NlcNm7eb-218" vertex="1">
          <mxGeometry y="260" width="250" height="26" as="geometry" />
        </mxCell>
        <mxCell id="xlgzFOz0VYX2NlcNm7eb-237" value="- vehicleModel:&amp;nbsp;String" style="text;strokeColor=none;fillColor=none;align=left;verticalAlign=top;spacingLeft=4;spacingRight=4;overflow=hidden;rotatable=0;points=[[0,0.5],[1,0.5]];portConstraint=eastwest;whiteSpace=wrap;html=1;" parent="xlgzFOz0VYX2NlcNm7eb-218" vertex="1">
          <mxGeometry y="286" width="250" height="26" as="geometry" />
        </mxCell>
        <mxCell id="xlgzFOz0VYX2NlcNm7eb-236" value="- licenseNumber:&amp;nbsp;String" style="text;strokeColor=none;fillColor=none;align=left;verticalAlign=top;spacingLeft=4;spacingRight=4;overflow=hidden;rotatable=0;points=[[0,0.5],[1,0.5]];portConstraint=eastwest;whiteSpace=wrap;html=1;" parent="xlgzFOz0VYX2NlcNm7eb-218" vertex="1">
          <mxGeometry y="312" width="250" height="26" as="geometry" />
        </mxCell>
        <mxCell id="xlgzFOz0VYX2NlcNm7eb-235" value="- rating: double" style="text;strokeColor=none;fillColor=none;align=left;verticalAlign=top;spacingLeft=4;spacingRight=4;overflow=hidden;rotatable=0;points=[[0,0.5],[1,0.5]];portConstraint=eastwest;whiteSpace=wrap;html=1;" parent="xlgzFOz0VYX2NlcNm7eb-218" vertex="1">
          <mxGeometry y="338" width="250" height="26" as="geometry" />
        </mxCell>
        <mxCell id="xlgzFOz0VYX2NlcNm7eb-234" value="- insuranceDetail:&amp;nbsp;String" style="text;strokeColor=none;fillColor=none;align=left;verticalAlign=top;spacingLeft=4;spacingRight=4;overflow=hidden;rotatable=0;points=[[0,0.5],[1,0.5]];portConstraint=eastwest;whiteSpace=wrap;html=1;" parent="xlgzFOz0VYX2NlcNm7eb-218" vertex="1">
          <mxGeometry y="364" width="250" height="26" as="geometry" />
        </mxCell>
        <mxCell id="xlgzFOz0VYX2NlcNm7eb-233" value="- vehicleType:&amp;nbsp;String" style="text;strokeColor=none;fillColor=none;align=left;verticalAlign=top;spacingLeft=4;spacingRight=4;overflow=hidden;rotatable=0;points=[[0,0.5],[1,0.5]];portConstraint=eastwest;whiteSpace=wrap;html=1;" parent="xlgzFOz0VYX2NlcNm7eb-218" vertex="1">
          <mxGeometry y="390" width="250" height="26" as="geometry" />
        </mxCell>
        <mxCell id="xlgzFOz0VYX2NlcNm7eb-232" value="- licenseExpireDate: Date" style="text;strokeColor=none;fillColor=none;align=left;verticalAlign=top;spacingLeft=4;spacingRight=4;overflow=hidden;rotatable=0;points=[[0,0.5],[1,0.5]];portConstraint=eastwest;whiteSpace=wrap;html=1;" parent="xlgzFOz0VYX2NlcNm7eb-218" vertex="1">
          <mxGeometry y="416" width="250" height="26" as="geometry" />
        </mxCell>
        <mxCell id="xlgzFOz0VYX2NlcNm7eb-231" value="- available:&amp;nbsp;String" style="text;strokeColor=none;fillColor=none;align=left;verticalAlign=top;spacingLeft=4;spacingRight=4;overflow=hidden;rotatable=0;points=[[0,0.5],[1,0.5]];portConstraint=eastwest;whiteSpace=wrap;html=1;" parent="xlgzFOz0VYX2NlcNm7eb-218" vertex="1">
          <mxGeometry y="442" width="250" height="26" as="geometry" />
        </mxCell>
        <mxCell id="xlgzFOz0VYX2NlcNm7eb-227" value="" style="line;strokeWidth=1;fillColor=none;align=left;verticalAlign=middle;spacingTop=-1;spacingLeft=3;spacingRight=3;rotatable=0;labelPosition=right;points=[];portConstraint=eastwest;strokeColor=inherit;" parent="xlgzFOz0VYX2NlcNm7eb-218" vertex="1">
          <mxGeometry y="468" width="250" height="8" as="geometry" />
        </mxCell>
        <mxCell id="oRSVwbR3Z3SmRV7vV4Ph-53" style="edgeStyle=orthogonalEdgeStyle;rounded=0;orthogonalLoop=1;jettySize=auto;html=1;entryX=1;entryY=0;entryDx=0;entryDy=0;" edge="1" parent="1" source="xlgzFOz0VYX2NlcNm7eb-242" target="xlgzFOz0VYX2NlcNm7eb-134">
          <mxGeometry relative="1" as="geometry">
            <Array as="points">
              <mxPoint x="1970" y="130" />
              <mxPoint x="1650" y="130" />
            </Array>
          </mxGeometry>
        </mxCell>
        <mxCell id="oRSVwbR3Z3SmRV7vV4Ph-54" value="Text" style="edgeLabel;html=1;align=center;verticalAlign=middle;resizable=0;points=[];" vertex="1" connectable="0" parent="oRSVwbR3Z3SmRV7vV4Ph-53">
          <mxGeometry x="0.1475" y="3" relative="1" as="geometry">
            <mxPoint y="1" as="offset" />
          </mxGeometry>
        </mxCell>
        <mxCell id="xlgzFOz0VYX2NlcNm7eb-242" value="ExtendUserSigninDTO" style="swimlane;fontStyle=1;align=center;verticalAlign=top;childLayout=stackLayout;horizontal=1;startSize=26;horizontalStack=0;resizeParent=1;resizeParentMax=0;resizeLast=0;collapsible=1;marginBottom=0;whiteSpace=wrap;html=1;" parent="1" vertex="1">
          <mxGeometry x="1910" y="1360" width="200" height="86" as="geometry">
            <mxRectangle x="470" y="250" width="100" height="30" as="alternateBounds" />
          </mxGeometry>
        </mxCell>
        <mxCell id="xlgzFOz0VYX2NlcNm7eb-243" value="- role: String" style="text;strokeColor=none;fillColor=none;align=left;verticalAlign=top;spacingLeft=4;spacingRight=4;overflow=hidden;rotatable=0;points=[[0,0.5],[1,0.5]];portConstraint=eastwest;whiteSpace=wrap;html=1;" parent="xlgzFOz0VYX2NlcNm7eb-242" vertex="1">
          <mxGeometry y="26" width="200" height="26" as="geometry" />
        </mxCell>
        <mxCell id="xlgzFOz0VYX2NlcNm7eb-244" value="- captcha: String" style="text;strokeColor=none;fillColor=none;align=left;verticalAlign=top;spacingLeft=4;spacingRight=4;overflow=hidden;rotatable=0;points=[[0,0.5],[1,0.5]];portConstraint=eastwest;whiteSpace=wrap;html=1;" parent="xlgzFOz0VYX2NlcNm7eb-242" vertex="1">
          <mxGeometry y="52" width="200" height="26" as="geometry" />
        </mxCell>
        <mxCell id="xlgzFOz0VYX2NlcNm7eb-245" value="" style="line;strokeWidth=1;fillColor=none;align=left;verticalAlign=middle;spacingTop=-1;spacingLeft=3;spacingRight=3;rotatable=0;labelPosition=right;points=[];portConstraint=eastwest;strokeColor=inherit;" parent="xlgzFOz0VYX2NlcNm7eb-242" vertex="1">
          <mxGeometry y="78" width="200" height="8" as="geometry" />
        </mxCell>
        <mxCell id="xlgzFOz0VYX2NlcNm7eb-246" value="PassengerDao" style="swimlane;fontStyle=1;align=center;verticalAlign=top;childLayout=stackLayout;horizontal=1;startSize=26;horizontalStack=0;resizeParent=1;resizeParentMax=0;resizeLast=0;collapsible=1;marginBottom=0;whiteSpace=wrap;html=1;" parent="1" vertex="1">
          <mxGeometry x="-360" y="2140" width="190" height="112" as="geometry">
            <mxRectangle x="470" y="250" width="100" height="30" as="alternateBounds" />
          </mxGeometry>
        </mxCell>
        <mxCell id="xlgzFOz0VYX2NlcNm7eb-252" value="- homeAddress: String" style="text;strokeColor=none;fillColor=none;align=left;verticalAlign=top;spacingLeft=4;spacingRight=4;overflow=hidden;rotatable=0;points=[[0,0.5],[1,0.5]];portConstraint=eastwest;whiteSpace=wrap;html=1;" parent="xlgzFOz0VYX2NlcNm7eb-246" vertex="1">
          <mxGeometry y="26" width="190" height="26" as="geometry" />
        </mxCell>
        <mxCell id="xlgzFOz0VYX2NlcNm7eb-255" value="- membership: membershipType" style="text;strokeColor=none;fillColor=none;align=left;verticalAlign=top;spacingLeft=4;spacingRight=4;overflow=hidden;rotatable=0;points=[[0,0.5],[1,0.5]];portConstraint=eastwest;whiteSpace=wrap;html=1;" parent="xlgzFOz0VYX2NlcNm7eb-246" vertex="1">
          <mxGeometry y="52" width="190" height="26" as="geometry" />
        </mxCell>
        <mxCell id="xlgzFOz0VYX2NlcNm7eb-256" value="" style="line;strokeWidth=1;fillColor=none;align=left;verticalAlign=middle;spacingTop=-1;spacingLeft=3;spacingRight=3;rotatable=0;labelPosition=right;points=[];portConstraint=eastwest;strokeColor=inherit;" parent="xlgzFOz0VYX2NlcNm7eb-246" vertex="1">
          <mxGeometry y="78" width="190" height="8" as="geometry" />
        </mxCell>
        <mxCell id="xlgzFOz0VYX2NlcNm7eb-257" value="+ toString(): String" style="text;strokeColor=none;fillColor=none;align=left;verticalAlign=top;spacingLeft=4;spacingRight=4;overflow=hidden;rotatable=0;points=[[0,0.5],[1,0.5]];portConstraint=eastwest;whiteSpace=wrap;html=1;" parent="xlgzFOz0VYX2NlcNm7eb-246" vertex="1">
          <mxGeometry y="86" width="190" height="26" as="geometry" />
        </mxCell>
        <mxCell id="xlgzFOz0VYX2NlcNm7eb-258" value="SignoutService&amp;lt;T&amp;gt;" style="swimlane;fontStyle=1;align=center;verticalAlign=top;childLayout=stackLayout;horizontal=1;startSize=26;horizontalStack=0;resizeParent=1;resizeParentMax=0;resizeLast=0;collapsible=1;marginBottom=0;whiteSpace=wrap;html=1;" parent="1" vertex="1">
          <mxGeometry x="70" y="2140" width="160" height="60" as="geometry">
            <mxRectangle x="470" y="250" width="100" height="30" as="alternateBounds" />
          </mxGeometry>
        </mxCell>
        <mxCell id="xlgzFOz0VYX2NlcNm7eb-259" value="" style="line;strokeWidth=1;fillColor=none;align=left;verticalAlign=middle;spacingTop=-1;spacingLeft=3;spacingRight=3;rotatable=0;labelPosition=right;points=[];portConstraint=eastwest;strokeColor=inherit;" parent="xlgzFOz0VYX2NlcNm7eb-258" vertex="1">
          <mxGeometry y="26" width="160" height="8" as="geometry" />
        </mxCell>
        <mxCell id="xlgzFOz0VYX2NlcNm7eb-260" value="+ signout(): T" style="text;strokeColor=none;fillColor=none;align=left;verticalAlign=top;spacingLeft=4;spacingRight=4;overflow=hidden;rotatable=0;points=[[0,0.5],[1,0.5]];portConstraint=eastwest;whiteSpace=wrap;html=1;" parent="xlgzFOz0VYX2NlcNm7eb-258" vertex="1">
          <mxGeometry y="34" width="160" height="26" as="geometry" />
        </mxCell>
        <mxCell id="oRSVwbR3Z3SmRV7vV4Ph-73" style="edgeStyle=orthogonalEdgeStyle;rounded=0;orthogonalLoop=1;jettySize=auto;html=1;exitX=0.75;exitY=0;exitDx=0;exitDy=0;entryX=0;entryY=0.5;entryDx=0;entryDy=0;" edge="1" parent="1" source="xlgzFOz0VYX2NlcNm7eb-263" target="xlgzFOz0VYX2NlcNm7eb-217">
          <mxGeometry relative="1" as="geometry" />
        </mxCell>
        <mxCell id="xlgzFOz0VYX2NlcNm7eb-263" value="PassengerRepository&amp;lt;T&amp;gt;" style="swimlane;fontStyle=1;align=center;verticalAlign=top;childLayout=stackLayout;horizontal=1;startSize=26;horizontalStack=0;resizeParent=1;resizeParentMax=0;resizeLast=0;collapsible=1;marginBottom=0;whiteSpace=wrap;html=1;" parent="1" vertex="1">
          <mxGeometry x="350" y="2125" width="440" height="112" as="geometry">
            <mxRectangle x="470" y="250" width="100" height="30" as="alternateBounds" />
          </mxGeometry>
        </mxCell>
        <mxCell id="xlgzFOz0VYX2NlcNm7eb-264" value="" style="line;strokeWidth=1;fillColor=none;align=left;verticalAlign=middle;spacingTop=-1;spacingLeft=3;spacingRight=3;rotatable=0;labelPosition=right;points=[];portConstraint=eastwest;strokeColor=inherit;" parent="xlgzFOz0VYX2NlcNm7eb-263" vertex="1">
          <mxGeometry y="26" width="440" height="8" as="geometry" />
        </mxCell>
        <mxCell id="xlgzFOz0VYX2NlcNm7eb-265" value="+&amp;nbsp;updateSignInStatusByID(Long,String&lt;span style=&quot;background-color: initial;&quot;&gt;):&amp;nbsp;void&lt;/span&gt;" style="text;strokeColor=none;fillColor=none;align=left;verticalAlign=top;spacingLeft=4;spacingRight=4;overflow=hidden;rotatable=0;points=[[0,0.5],[1,0.5]];portConstraint=eastwest;whiteSpace=wrap;html=1;" parent="xlgzFOz0VYX2NlcNm7eb-263" vertex="1">
          <mxGeometry y="34" width="440" height="26" as="geometry" />
        </mxCell>
        <mxCell id="xlgzFOz0VYX2NlcNm7eb-267" value="+&amp;nbsp;updateUserInfoByid(Long,String,String,String,String,String,String,String&lt;span style=&quot;background-color: initial;&quot;&gt;):&amp;nbsp;void&lt;/span&gt;" style="text;strokeColor=none;fillColor=none;align=left;verticalAlign=top;spacingLeft=4;spacingRight=4;overflow=hidden;rotatable=0;points=[[0,0.5],[1,0.5]];portConstraint=eastwest;whiteSpace=wrap;html=1;" parent="xlgzFOz0VYX2NlcNm7eb-263" vertex="1">
          <mxGeometry y="60" width="440" height="26" as="geometry" />
        </mxCell>
        <mxCell id="xlgzFOz0VYX2NlcNm7eb-266" value="+ updateSignInStatusByUsername(String,String,String,String): void" style="text;strokeColor=none;fillColor=none;align=left;verticalAlign=top;spacingLeft=4;spacingRight=4;overflow=hidden;rotatable=0;points=[[0,0.5],[1,0.5]];portConstraint=eastwest;whiteSpace=wrap;html=1;" parent="xlgzFOz0VYX2NlcNm7eb-263" vertex="1">
          <mxGeometry y="86" width="440" height="26" as="geometry" />
        </mxCell>
        <mxCell id="xlgzFOz0VYX2NlcNm7eb-268" value="AbstractAuthController&amp;lt;T&amp;gt;" style="swimlane;fontStyle=1;align=center;verticalAlign=top;childLayout=stackLayout;horizontal=1;startSize=26;horizontalStack=0;resizeParent=1;resizeParentMax=0;resizeLast=0;collapsible=1;marginBottom=0;whiteSpace=wrap;html=1;" parent="1" vertex="1">
          <mxGeometry x="980" y="2125" width="190" height="86" as="geometry">
            <mxRectangle x="470" y="250" width="100" height="30" as="alternateBounds" />
          </mxGeometry>
        </mxCell>
        <mxCell id="xlgzFOz0VYX2NlcNm7eb-269" value="- authService: AuthService&amp;lt;T&amp;gt;" style="text;strokeColor=none;fillColor=none;align=left;verticalAlign=top;spacingLeft=4;spacingRight=4;overflow=hidden;rotatable=0;points=[[0,0.5],[1,0.5]];portConstraint=eastwest;whiteSpace=wrap;html=1;" parent="xlgzFOz0VYX2NlcNm7eb-268" vertex="1">
          <mxGeometry y="26" width="190" height="26" as="geometry" />
        </mxCell>
        <mxCell id="xlgzFOz0VYX2NlcNm7eb-271" value="" style="line;strokeWidth=1;fillColor=none;align=left;verticalAlign=middle;spacingTop=-1;spacingLeft=3;spacingRight=3;rotatable=0;labelPosition=right;points=[];portConstraint=eastwest;strokeColor=inherit;" parent="xlgzFOz0VYX2NlcNm7eb-268" vertex="1">
          <mxGeometry y="52" width="190" height="8" as="geometry" />
        </mxCell>
        <mxCell id="xlgzFOz0VYX2NlcNm7eb-272" value="+ signIn(T): ResponseEntity&amp;lt;T&amp;gt;" style="text;strokeColor=none;fillColor=none;align=left;verticalAlign=top;spacingLeft=4;spacingRight=4;overflow=hidden;rotatable=0;points=[[0,0.5],[1,0.5]];portConstraint=eastwest;whiteSpace=wrap;html=1;" parent="xlgzFOz0VYX2NlcNm7eb-268" vertex="1">
          <mxGeometry y="60" width="190" height="26" as="geometry" />
        </mxCell>
        <mxCell id="oRSVwbR3Z3SmRV7vV4Ph-71" style="edgeStyle=orthogonalEdgeStyle;rounded=0;orthogonalLoop=1;jettySize=auto;html=1;exitX=0;exitY=0;exitDx=0;exitDy=0;entryX=0;entryY=0;entryDx=0;entryDy=0;" edge="1" parent="1" source="xlgzFOz0VYX2NlcNm7eb-273" target="xlgzFOz0VYX2NlcNm7eb-160">
          <mxGeometry relative="1" as="geometry" />
        </mxCell>
        <mxCell id="xlgzFOz0VYX2NlcNm7eb-273" value="SignupService&amp;lt;T&amp;gt;" style="swimlane;fontStyle=1;align=center;verticalAlign=top;childLayout=stackLayout;horizontal=1;startSize=26;horizontalStack=0;resizeParent=1;resizeParentMax=0;resizeLast=0;collapsible=1;marginBottom=0;whiteSpace=wrap;html=1;" parent="1" vertex="1">
          <mxGeometry x="-530" y="2670" width="190" height="60" as="geometry">
            <mxRectangle x="470" y="250" width="100" height="30" as="alternateBounds" />
          </mxGeometry>
        </mxCell>
        <mxCell id="xlgzFOz0VYX2NlcNm7eb-275" value="" style="line;strokeWidth=1;fillColor=none;align=left;verticalAlign=middle;spacingTop=-1;spacingLeft=3;spacingRight=3;rotatable=0;labelPosition=right;points=[];portConstraint=eastwest;strokeColor=inherit;" parent="xlgzFOz0VYX2NlcNm7eb-273" vertex="1">
          <mxGeometry y="26" width="190" height="8" as="geometry" />
        </mxCell>
        <mxCell id="xlgzFOz0VYX2NlcNm7eb-276" value="+ signUp(T): T" style="text;strokeColor=none;fillColor=none;align=left;verticalAlign=top;spacingLeft=4;spacingRight=4;overflow=hidden;rotatable=0;points=[[0,0.5],[1,0.5]];portConstraint=eastwest;whiteSpace=wrap;html=1;" parent="xlgzFOz0VYX2NlcNm7eb-273" vertex="1">
          <mxGeometry y="34" width="190" height="26" as="geometry" />
        </mxCell>
        <mxCell id="xlgzFOz0VYX2NlcNm7eb-277" value="DriverDao&lt;div&gt;&lt;br&gt;&lt;/div&gt;" style="swimlane;fontStyle=1;align=center;verticalAlign=top;childLayout=stackLayout;horizontal=1;startSize=26;horizontalStack=0;resizeParent=1;resizeParentMax=0;resizeLast=0;collapsible=1;marginBottom=0;whiteSpace=wrap;html=1;" parent="1" vertex="1">
          <mxGeometry x="-160" y="2540" width="250" height="376" as="geometry">
            <mxRectangle x="470" y="250" width="100" height="30" as="alternateBounds" />
          </mxGeometry>
        </mxCell>
        <mxCell id="xlgzFOz0VYX2NlcNm7eb-296" value="- vehicleLicenseState: String" style="text;strokeColor=none;fillColor=none;align=left;verticalAlign=top;spacingLeft=4;spacingRight=4;overflow=hidden;rotatable=0;points=[[0,0.5],[1,0.5]];portConstraint=eastwest;whiteSpace=wrap;html=1;" parent="xlgzFOz0VYX2NlcNm7eb-277" vertex="1">
          <mxGeometry y="26" width="250" height="26" as="geometry" />
        </mxCell>
        <mxCell id="xlgzFOz0VYX2NlcNm7eb-284" value="- vehicleLicenseExpireDate: Date" style="text;strokeColor=none;fillColor=none;align=left;verticalAlign=top;spacingLeft=4;spacingRight=4;overflow=hidden;rotatable=0;points=[[0,0.5],[1,0.5]];portConstraint=eastwest;whiteSpace=wrap;html=1;" parent="xlgzFOz0VYX2NlcNm7eb-277" vertex="1">
          <mxGeometry y="52" width="250" height="26" as="geometry" />
        </mxCell>
        <mxCell id="xlgzFOz0VYX2NlcNm7eb-285" value="&lt;span style=&quot;color: rgb(0, 0, 0); font-family: Helvetica; font-size: 12px; font-style: normal; font-variant-ligatures: normal; font-variant-caps: normal; font-weight: 400; letter-spacing: normal; orphans: 2; text-align: left; text-indent: 0px; text-transform: none; widows: 2; word-spacing: 0px; -webkit-text-stroke-width: 0px; background-color: rgb(251, 251, 251); text-decoration-thickness: initial; text-decoration-style: initial; text-decoration-color: initial; float: none; display: inline !important;&quot;&gt;- vehicleLicensePlateNumber: String&lt;/span&gt;&lt;br&gt;" style="text;strokeColor=none;fillColor=none;align=left;verticalAlign=top;spacingLeft=4;spacingRight=4;overflow=hidden;rotatable=0;points=[[0,0.5],[1,0.5]];portConstraint=eastwest;whiteSpace=wrap;html=1;" parent="xlgzFOz0VYX2NlcNm7eb-277" vertex="1">
          <mxGeometry y="78" width="250" height="26" as="geometry" />
        </mxCell>
        <mxCell id="xlgzFOz0VYX2NlcNm7eb-286" value="- licenseState: String" style="text;strokeColor=none;fillColor=none;align=left;verticalAlign=top;spacingLeft=4;spacingRight=4;overflow=hidden;rotatable=0;points=[[0,0.5],[1,0.5]];portConstraint=eastwest;whiteSpace=wrap;html=1;" parent="xlgzFOz0VYX2NlcNm7eb-277" vertex="1">
          <mxGeometry y="104" width="250" height="26" as="geometry" />
        </mxCell>
        <mxCell id="xlgzFOz0VYX2NlcNm7eb-287" value="- vehicleColor:&amp;nbsp;String" style="text;strokeColor=none;fillColor=none;align=left;verticalAlign=top;spacingLeft=4;spacingRight=4;overflow=hidden;rotatable=0;points=[[0,0.5],[1,0.5]];portConstraint=eastwest;whiteSpace=wrap;html=1;" parent="xlgzFOz0VYX2NlcNm7eb-277" vertex="1">
          <mxGeometry y="130" width="250" height="26" as="geometry" />
        </mxCell>
        <mxCell id="xlgzFOz0VYX2NlcNm7eb-288" value="- vehicleModel:&amp;nbsp;String" style="text;strokeColor=none;fillColor=none;align=left;verticalAlign=top;spacingLeft=4;spacingRight=4;overflow=hidden;rotatable=0;points=[[0,0.5],[1,0.5]];portConstraint=eastwest;whiteSpace=wrap;html=1;" parent="xlgzFOz0VYX2NlcNm7eb-277" vertex="1">
          <mxGeometry y="156" width="250" height="26" as="geometry" />
        </mxCell>
        <mxCell id="xlgzFOz0VYX2NlcNm7eb-289" value="- licenseNumber:&amp;nbsp;String" style="text;strokeColor=none;fillColor=none;align=left;verticalAlign=top;spacingLeft=4;spacingRight=4;overflow=hidden;rotatable=0;points=[[0,0.5],[1,0.5]];portConstraint=eastwest;whiteSpace=wrap;html=1;" parent="xlgzFOz0VYX2NlcNm7eb-277" vertex="1">
          <mxGeometry y="182" width="250" height="26" as="geometry" />
        </mxCell>
        <mxCell id="xlgzFOz0VYX2NlcNm7eb-290" value="- rating: double" style="text;strokeColor=none;fillColor=none;align=left;verticalAlign=top;spacingLeft=4;spacingRight=4;overflow=hidden;rotatable=0;points=[[0,0.5],[1,0.5]];portConstraint=eastwest;whiteSpace=wrap;html=1;" parent="xlgzFOz0VYX2NlcNm7eb-277" vertex="1">
          <mxGeometry y="208" width="250" height="26" as="geometry" />
        </mxCell>
        <mxCell id="xlgzFOz0VYX2NlcNm7eb-291" value="- insuranceDetail:&amp;nbsp;String" style="text;strokeColor=none;fillColor=none;align=left;verticalAlign=top;spacingLeft=4;spacingRight=4;overflow=hidden;rotatable=0;points=[[0,0.5],[1,0.5]];portConstraint=eastwest;whiteSpace=wrap;html=1;" parent="xlgzFOz0VYX2NlcNm7eb-277" vertex="1">
          <mxGeometry y="234" width="250" height="26" as="geometry" />
        </mxCell>
        <mxCell id="xlgzFOz0VYX2NlcNm7eb-292" value="- vehicleType:&amp;nbsp;String" style="text;strokeColor=none;fillColor=none;align=left;verticalAlign=top;spacingLeft=4;spacingRight=4;overflow=hidden;rotatable=0;points=[[0,0.5],[1,0.5]];portConstraint=eastwest;whiteSpace=wrap;html=1;" parent="xlgzFOz0VYX2NlcNm7eb-277" vertex="1">
          <mxGeometry y="260" width="250" height="26" as="geometry" />
        </mxCell>
        <mxCell id="xlgzFOz0VYX2NlcNm7eb-293" value="- licenseExpireDate: Date" style="text;strokeColor=none;fillColor=none;align=left;verticalAlign=top;spacingLeft=4;spacingRight=4;overflow=hidden;rotatable=0;points=[[0,0.5],[1,0.5]];portConstraint=eastwest;whiteSpace=wrap;html=1;" parent="xlgzFOz0VYX2NlcNm7eb-277" vertex="1">
          <mxGeometry y="286" width="250" height="26" as="geometry" />
        </mxCell>
        <mxCell id="xlgzFOz0VYX2NlcNm7eb-294" value="- available:&amp;nbsp;String" style="text;strokeColor=none;fillColor=none;align=left;verticalAlign=top;spacingLeft=4;spacingRight=4;overflow=hidden;rotatable=0;points=[[0,0.5],[1,0.5]];portConstraint=eastwest;whiteSpace=wrap;html=1;" parent="xlgzFOz0VYX2NlcNm7eb-277" vertex="1">
          <mxGeometry y="312" width="250" height="26" as="geometry" />
        </mxCell>
        <mxCell id="xlgzFOz0VYX2NlcNm7eb-295" value="" style="line;strokeWidth=1;fillColor=none;align=left;verticalAlign=middle;spacingTop=-1;spacingLeft=3;spacingRight=3;rotatable=0;labelPosition=right;points=[];portConstraint=eastwest;strokeColor=inherit;" parent="xlgzFOz0VYX2NlcNm7eb-277" vertex="1">
          <mxGeometry y="338" width="250" height="12" as="geometry" />
        </mxCell>
        <mxCell id="xlgzFOz0VYX2NlcNm7eb-303" value="+ toString(): String" style="text;strokeColor=none;fillColor=none;align=left;verticalAlign=top;spacingLeft=4;spacingRight=4;overflow=hidden;rotatable=0;points=[[0,0.5],[1,0.5]];portConstraint=eastwest;whiteSpace=wrap;html=1;" parent="xlgzFOz0VYX2NlcNm7eb-277" vertex="1">
          <mxGeometry y="350" width="250" height="26" as="geometry" />
        </mxCell>
        <mxCell id="oRSVwbR3Z3SmRV7vV4Ph-74" style="edgeStyle=orthogonalEdgeStyle;rounded=0;orthogonalLoop=1;jettySize=auto;html=1;exitX=0.75;exitY=0;exitDx=0;exitDy=0;entryX=0;entryY=0.5;entryDx=0;entryDy=0;" edge="1" parent="1" source="xlgzFOz0VYX2NlcNm7eb-304" target="xlgzFOz0VYX2NlcNm7eb-217">
          <mxGeometry relative="1" as="geometry" />
        </mxCell>
        <mxCell id="xlgzFOz0VYX2NlcNm7eb-304" value="DriverRepository" style="swimlane;fontStyle=1;align=center;verticalAlign=top;childLayout=stackLayout;horizontal=1;startSize=26;horizontalStack=0;resizeParent=1;resizeParentMax=0;resizeLast=0;collapsible=1;marginBottom=0;whiteSpace=wrap;html=1;" parent="1" vertex="1">
          <mxGeometry x="200" y="2690" width="380" height="86" as="geometry">
            <mxRectangle x="470" y="250" width="100" height="30" as="alternateBounds" />
          </mxGeometry>
        </mxCell>
        <mxCell id="xlgzFOz0VYX2NlcNm7eb-305" value="" style="line;strokeWidth=1;fillColor=none;align=left;verticalAlign=middle;spacingTop=-1;spacingLeft=3;spacingRight=3;rotatable=0;labelPosition=right;points=[];portConstraint=eastwest;strokeColor=inherit;" parent="xlgzFOz0VYX2NlcNm7eb-304" vertex="1">
          <mxGeometry y="26" width="380" height="8" as="geometry" />
        </mxCell>
        <mxCell id="xlgzFOz0VYX2NlcNm7eb-306" value="+&amp;nbsp;updateSignInStatusByID(Long,String&lt;span style=&quot;background-color: initial;&quot;&gt;):&amp;nbsp;void&lt;/span&gt;" style="text;strokeColor=none;fillColor=none;align=left;verticalAlign=top;spacingLeft=4;spacingRight=4;overflow=hidden;rotatable=0;points=[[0,0.5],[1,0.5]];portConstraint=eastwest;whiteSpace=wrap;html=1;" parent="xlgzFOz0VYX2NlcNm7eb-304" vertex="1">
          <mxGeometry y="34" width="380" height="26" as="geometry" />
        </mxCell>
        <mxCell id="xlgzFOz0VYX2NlcNm7eb-308" value="+ updateSignInStatusByUsername(String,String,String,String): void" style="text;strokeColor=none;fillColor=none;align=left;verticalAlign=top;spacingLeft=4;spacingRight=4;overflow=hidden;rotatable=0;points=[[0,0.5],[1,0.5]];portConstraint=eastwest;whiteSpace=wrap;html=1;" parent="xlgzFOz0VYX2NlcNm7eb-304" vertex="1">
          <mxGeometry y="60" width="380" height="26" as="geometry" />
        </mxCell>
        <mxCell id="oRSVwbR3Z3SmRV7vV4Ph-49" style="edgeStyle=orthogonalEdgeStyle;rounded=0;orthogonalLoop=1;jettySize=auto;html=1;exitX=0.75;exitY=0;exitDx=0;exitDy=0;entryX=0;entryY=0.5;entryDx=0;entryDy=0;dashed=1;" edge="1" parent="1" source="xlgzFOz0VYX2NlcNm7eb-309" target="xlgzFOz0VYX2NlcNm7eb-146">
          <mxGeometry relative="1" as="geometry">
            <Array as="points">
              <mxPoint x="945" y="2550" />
              <mxPoint x="1300" y="2550" />
              <mxPoint x="1300" y="377" />
            </Array>
          </mxGeometry>
        </mxCell>
        <mxCell id="oRSVwbR3Z3SmRV7vV4Ph-50" value="Text" style="edgeLabel;html=1;align=center;verticalAlign=middle;resizable=0;points=[];" vertex="1" connectable="0" parent="oRSVwbR3Z3SmRV7vV4Ph-49">
          <mxGeometry x="-0.3544" y="-2" relative="1" as="geometry">
            <mxPoint as="offset" />
          </mxGeometry>
        </mxCell>
        <mxCell id="xlgzFOz0VYX2NlcNm7eb-309" value="ExtendedAuthService" style="swimlane;fontStyle=1;align=center;verticalAlign=top;childLayout=stackLayout;horizontal=1;startSize=26;horizontalStack=0;resizeParent=1;resizeParentMax=0;resizeLast=0;collapsible=1;marginBottom=0;whiteSpace=wrap;html=1;" parent="1" vertex="1">
          <mxGeometry x="720" y="2690" width="300" height="34" as="geometry">
            <mxRectangle x="470" y="250" width="100" height="30" as="alternateBounds" />
          </mxGeometry>
        </mxCell>
        <mxCell id="xlgzFOz0VYX2NlcNm7eb-310" value="" style="line;strokeWidth=1;fillColor=none;align=left;verticalAlign=middle;spacingTop=-1;spacingLeft=3;spacingRight=3;rotatable=0;labelPosition=right;points=[];portConstraint=eastwest;strokeColor=inherit;" parent="xlgzFOz0VYX2NlcNm7eb-309" vertex="1">
          <mxGeometry y="26" width="300" height="8" as="geometry" />
        </mxCell>
        <mxCell id="oRSVwbR3Z3SmRV7vV4Ph-58" style="edgeStyle=orthogonalEdgeStyle;rounded=0;orthogonalLoop=1;jettySize=auto;html=1;exitX=0.75;exitY=0;exitDx=0;exitDy=0;entryX=0.25;entryY=1;entryDx=0;entryDy=0;" edge="1" parent="1" source="xlgzFOz0VYX2NlcNm7eb-313" target="xlgzFOz0VYX2NlcNm7eb-218">
          <mxGeometry relative="1" as="geometry" />
        </mxCell>
        <mxCell id="xlgzFOz0VYX2NlcNm7eb-313" value="DriverService&amp;lt;T&amp;gt;" style="swimlane;fontStyle=1;align=center;verticalAlign=top;childLayout=stackLayout;horizontal=1;startSize=26;horizontalStack=0;resizeParent=1;resizeParentMax=0;resizeLast=0;collapsible=1;marginBottom=0;whiteSpace=wrap;html=1;" parent="1" vertex="1">
          <mxGeometry x="1210" y="2670" width="220" height="164" as="geometry">
            <mxRectangle x="470" y="250" width="100" height="30" as="alternateBounds" />
          </mxGeometry>
        </mxCell>
        <mxCell id="xlgzFOz0VYX2NlcNm7eb-314" value="" style="line;strokeWidth=1;fillColor=none;align=left;verticalAlign=middle;spacingTop=-1;spacingLeft=3;spacingRight=3;rotatable=0;labelPosition=right;points=[];portConstraint=eastwest;strokeColor=inherit;" parent="xlgzFOz0VYX2NlcNm7eb-313" vertex="1">
          <mxGeometry y="26" width="220" height="8" as="geometry" />
        </mxCell>
        <mxCell id="xlgzFOz0VYX2NlcNm7eb-315" value="+&amp;nbsp;update(T&lt;span style=&quot;background-color: initial;&quot;&gt;):&amp;nbsp;T&lt;/span&gt;" style="text;strokeColor=none;fillColor=none;align=left;verticalAlign=top;spacingLeft=4;spacingRight=4;overflow=hidden;rotatable=0;points=[[0,0.5],[1,0.5]];portConstraint=eastwest;whiteSpace=wrap;html=1;" parent="xlgzFOz0VYX2NlcNm7eb-313" vertex="1">
          <mxGeometry y="34" width="220" height="26" as="geometry" />
        </mxCell>
        <mxCell id="xlgzFOz0VYX2NlcNm7eb-316" value="+ findAllDrivers(): List&amp;lt;T&amp;gt;" style="text;strokeColor=none;fillColor=none;align=left;verticalAlign=top;spacingLeft=4;spacingRight=4;overflow=hidden;rotatable=0;points=[[0,0.5],[1,0.5]];portConstraint=eastwest;whiteSpace=wrap;html=1;" parent="xlgzFOz0VYX2NlcNm7eb-313" vertex="1">
          <mxGeometry y="60" width="220" height="26" as="geometry" />
        </mxCell>
        <mxCell id="xlgzFOz0VYX2NlcNm7eb-319" value="+ findById(Long): T" style="text;strokeColor=none;fillColor=none;align=left;verticalAlign=top;spacingLeft=4;spacingRight=4;overflow=hidden;rotatable=0;points=[[0,0.5],[1,0.5]];portConstraint=eastwest;whiteSpace=wrap;html=1;" parent="xlgzFOz0VYX2NlcNm7eb-313" vertex="1">
          <mxGeometry y="86" width="220" height="26" as="geometry" />
        </mxCell>
        <mxCell id="xlgzFOz0VYX2NlcNm7eb-318" value="+ verifyDriverLicense(T): boolean" style="text;strokeColor=none;fillColor=none;align=left;verticalAlign=top;spacingLeft=4;spacingRight=4;overflow=hidden;rotatable=0;points=[[0,0.5],[1,0.5]];portConstraint=eastwest;whiteSpace=wrap;html=1;" parent="xlgzFOz0VYX2NlcNm7eb-313" vertex="1">
          <mxGeometry y="112" width="220" height="26" as="geometry" />
        </mxCell>
        <mxCell id="xlgzFOz0VYX2NlcNm7eb-317" value="+ isDriverAvailable(Long): boolean" style="text;strokeColor=none;fillColor=none;align=left;verticalAlign=top;spacingLeft=4;spacingRight=4;overflow=hidden;rotatable=0;points=[[0,0.5],[1,0.5]];portConstraint=eastwest;whiteSpace=wrap;html=1;" parent="xlgzFOz0VYX2NlcNm7eb-313" vertex="1">
          <mxGeometry y="138" width="220" height="26" as="geometry" />
        </mxCell>
        <mxCell id="oRSVwbR3Z3SmRV7vV4Ph-55" style="edgeStyle=orthogonalEdgeStyle;rounded=0;orthogonalLoop=1;jettySize=auto;html=1;entryX=1;entryY=0.5;entryDx=0;entryDy=0;dashed=1;" edge="1" parent="1" source="xlgzFOz0VYX2NlcNm7eb-320" target="xlgzFOz0VYX2NlcNm7eb-152">
          <mxGeometry relative="1" as="geometry">
            <Array as="points">
              <mxPoint x="1640" y="1680" />
              <mxPoint x="1830" y="1680" />
              <mxPoint x="1830" y="437" />
            </Array>
          </mxGeometry>
        </mxCell>
        <mxCell id="oRSVwbR3Z3SmRV7vV4Ph-56" value="Text" style="edgeLabel;html=1;align=center;verticalAlign=middle;resizable=0;points=[];" vertex="1" connectable="0" parent="oRSVwbR3Z3SmRV7vV4Ph-55">
          <mxGeometry x="0.0523" y="1" relative="1" as="geometry">
            <mxPoint as="offset" />
          </mxGeometry>
        </mxCell>
        <mxCell id="xlgzFOz0VYX2NlcNm7eb-320" value="PassengerService&amp;lt;T&amp;gt;" style="swimlane;fontStyle=1;align=center;verticalAlign=top;childLayout=stackLayout;horizontal=1;startSize=26;horizontalStack=0;resizeParent=1;resizeParentMax=0;resizeLast=0;collapsible=1;marginBottom=0;whiteSpace=wrap;html=1;" parent="1" vertex="1">
          <mxGeometry x="1510" y="2670" width="260" height="112" as="geometry">
            <mxRectangle x="470" y="250" width="100" height="30" as="alternateBounds" />
          </mxGeometry>
        </mxCell>
        <mxCell id="xlgzFOz0VYX2NlcNm7eb-321" value="" style="line;strokeWidth=1;fillColor=none;align=left;verticalAlign=middle;spacingTop=-1;spacingLeft=3;spacingRight=3;rotatable=0;labelPosition=right;points=[];portConstraint=eastwest;strokeColor=inherit;" parent="xlgzFOz0VYX2NlcNm7eb-320" vertex="1">
          <mxGeometry y="26" width="260" height="8" as="geometry" />
        </mxCell>
        <mxCell id="xlgzFOz0VYX2NlcNm7eb-322" value="+&amp;nbsp;convertToDTO(passengerDao&lt;span style=&quot;background-color: initial;&quot;&gt;):&amp;nbsp;T&lt;/span&gt;" style="text;strokeColor=none;fillColor=none;align=left;verticalAlign=top;spacingLeft=4;spacingRight=4;overflow=hidden;rotatable=0;points=[[0,0.5],[1,0.5]];portConstraint=eastwest;whiteSpace=wrap;html=1;" parent="xlgzFOz0VYX2NlcNm7eb-320" vertex="1">
          <mxGeometry y="34" width="260" height="26" as="geometry" />
        </mxCell>
        <mxCell id="xlgzFOz0VYX2NlcNm7eb-323" value="+ fetchAllPassengers(): List&amp;lt;PassengerDao&amp;gt;" style="text;strokeColor=none;fillColor=none;align=left;verticalAlign=top;spacingLeft=4;spacingRight=4;overflow=hidden;rotatable=0;points=[[0,0.5],[1,0.5]];portConstraint=eastwest;whiteSpace=wrap;html=1;" parent="xlgzFOz0VYX2NlcNm7eb-320" vertex="1">
          <mxGeometry y="60" width="260" height="26" as="geometry" />
        </mxCell>
        <mxCell id="xlgzFOz0VYX2NlcNm7eb-324" value="+ update(T): T" style="text;strokeColor=none;fillColor=none;align=left;verticalAlign=top;spacingLeft=4;spacingRight=4;overflow=hidden;rotatable=0;points=[[0,0.5],[1,0.5]];portConstraint=eastwest;whiteSpace=wrap;html=1;" parent="xlgzFOz0VYX2NlcNm7eb-320" vertex="1">
          <mxGeometry y="86" width="260" height="26" as="geometry" />
        </mxCell>
        <mxCell id="oRSVwbR3Z3SmRV7vV4Ph-46" style="edgeStyle=orthogonalEdgeStyle;rounded=0;orthogonalLoop=1;jettySize=auto;html=1;entryX=0;entryY=0.5;entryDx=0;entryDy=0;" edge="1" parent="1" source="xlgzFOz0VYX2NlcNm7eb-327" target="xlgzFOz0VYX2NlcNm7eb-276">
          <mxGeometry relative="1" as="geometry" />
        </mxCell>
        <mxCell id="oRSVwbR3Z3SmRV7vV4Ph-62" style="edgeStyle=orthogonalEdgeStyle;rounded=0;orthogonalLoop=1;jettySize=auto;html=1;exitX=0.25;exitY=0;exitDx=0;exitDy=0;entryX=0;entryY=0.5;entryDx=0;entryDy=0;dashed=1;" edge="1" parent="1" source="xlgzFOz0VYX2NlcNm7eb-327" target="xlgzFOz0VYX2NlcNm7eb-252">
          <mxGeometry relative="1" as="geometry" />
        </mxCell>
        <mxCell id="xlgzFOz0VYX2NlcNm7eb-327" value="PassengerSignupServiceImpl" style="swimlane;fontStyle=1;align=center;verticalAlign=top;childLayout=stackLayout;horizontal=1;startSize=26;horizontalStack=0;resizeParent=1;resizeParentMax=0;resizeLast=0;collapsible=1;marginBottom=0;whiteSpace=wrap;html=1;" parent="1" vertex="1">
          <mxGeometry x="-1030" y="3400" width="320" height="90" as="geometry">
            <mxRectangle x="470" y="250" width="100" height="30" as="alternateBounds" />
          </mxGeometry>
        </mxCell>
        <mxCell id="xlgzFOz0VYX2NlcNm7eb-339" value="- passengerRepository: PassengerRepository" style="text;strokeColor=none;fillColor=none;align=left;verticalAlign=top;spacingLeft=4;spacingRight=4;overflow=hidden;rotatable=0;points=[[0,0.5],[1,0.5]];portConstraint=eastwest;whiteSpace=wrap;html=1;" parent="xlgzFOz0VYX2NlcNm7eb-327" vertex="1">
          <mxGeometry y="26" width="320" height="26" as="geometry" />
        </mxCell>
        <mxCell id="xlgzFOz0VYX2NlcNm7eb-340" value="" style="line;strokeWidth=1;fillColor=none;align=left;verticalAlign=middle;spacingTop=-1;spacingLeft=3;spacingRight=3;rotatable=0;labelPosition=right;points=[];portConstraint=eastwest;strokeColor=inherit;" parent="xlgzFOz0VYX2NlcNm7eb-327" vertex="1">
          <mxGeometry y="52" width="320" height="12" as="geometry" />
        </mxCell>
        <mxCell id="xlgzFOz0VYX2NlcNm7eb-341" value="+ signUp(BaseUserSignupDTO): BaseUserSignupDTO" style="text;strokeColor=none;fillColor=none;align=left;verticalAlign=top;spacingLeft=4;spacingRight=4;overflow=hidden;rotatable=0;points=[[0,0.5],[1,0.5]];portConstraint=eastwest;whiteSpace=wrap;html=1;" parent="xlgzFOz0VYX2NlcNm7eb-327" vertex="1">
          <mxGeometry y="64" width="320" height="26" as="geometry" />
        </mxCell>
        <mxCell id="xlgzFOz0VYX2NlcNm7eb-342" value="AbstractSignoutController&amp;lt;T&amp;gt;" style="swimlane;fontStyle=1;align=center;verticalAlign=top;childLayout=stackLayout;horizontal=1;startSize=26;horizontalStack=0;resizeParent=1;resizeParentMax=0;resizeLast=0;collapsible=1;marginBottom=0;whiteSpace=wrap;html=1;" parent="1" vertex="1">
          <mxGeometry x="-350" y="3370" width="320" height="90" as="geometry">
            <mxRectangle x="470" y="250" width="100" height="30" as="alternateBounds" />
          </mxGeometry>
        </mxCell>
        <mxCell id="xlgzFOz0VYX2NlcNm7eb-343" value="- signoutService: signoutService&amp;lt;T&amp;gt;" style="text;strokeColor=none;fillColor=none;align=left;verticalAlign=top;spacingLeft=4;spacingRight=4;overflow=hidden;rotatable=0;points=[[0,0.5],[1,0.5]];portConstraint=eastwest;whiteSpace=wrap;html=1;" parent="xlgzFOz0VYX2NlcNm7eb-342" vertex="1">
          <mxGeometry y="26" width="320" height="26" as="geometry" />
        </mxCell>
        <mxCell id="xlgzFOz0VYX2NlcNm7eb-344" value="" style="line;strokeWidth=1;fillColor=none;align=left;verticalAlign=middle;spacingTop=-1;spacingLeft=3;spacingRight=3;rotatable=0;labelPosition=right;points=[];portConstraint=eastwest;strokeColor=inherit;" parent="xlgzFOz0VYX2NlcNm7eb-342" vertex="1">
          <mxGeometry y="52" width="320" height="12" as="geometry" />
        </mxCell>
        <mxCell id="xlgzFOz0VYX2NlcNm7eb-345" value="+ signOut(T): ResponseEntity&amp;lt;T&amp;gt;" style="text;strokeColor=none;fillColor=none;align=left;verticalAlign=top;spacingLeft=4;spacingRight=4;overflow=hidden;rotatable=0;points=[[0,0.5],[1,0.5]];portConstraint=eastwest;whiteSpace=wrap;html=1;" parent="xlgzFOz0VYX2NlcNm7eb-342" vertex="1">
          <mxGeometry y="64" width="320" height="26" as="geometry" />
        </mxCell>
        <mxCell id="oRSVwbR3Z3SmRV7vV4Ph-40" style="edgeStyle=orthogonalEdgeStyle;rounded=0;orthogonalLoop=1;jettySize=auto;html=1;exitX=0.75;exitY=0;exitDx=0;exitDy=0;entryX=0.75;entryY=1;entryDx=0;entryDy=0;" edge="1" parent="1" source="xlgzFOz0VYX2NlcNm7eb-346" target="xlgzFOz0VYX2NlcNm7eb-309">
          <mxGeometry relative="1" as="geometry" />
        </mxCell>
        <mxCell id="xlgzFOz0VYX2NlcNm7eb-346" value="ExtendAuthServicelmpl" style="swimlane;fontStyle=1;align=center;verticalAlign=top;childLayout=stackLayout;horizontal=1;startSize=26;horizontalStack=0;resizeParent=1;resizeParentMax=0;resizeLast=0;collapsible=1;marginBottom=0;whiteSpace=wrap;html=1;" parent="1" vertex="1">
          <mxGeometry x="20" y="3370" width="350" height="194" as="geometry">
            <mxRectangle x="470" y="250" width="100" height="30" as="alternateBounds" />
          </mxGeometry>
        </mxCell>
        <mxCell id="xlgzFOz0VYX2NlcNm7eb-347" value="- passengerRepository: PassengerRepository" style="text;strokeColor=none;fillColor=none;align=left;verticalAlign=top;spacingLeft=4;spacingRight=4;overflow=hidden;rotatable=0;points=[[0,0.5],[1,0.5]];portConstraint=eastwest;whiteSpace=wrap;html=1;" parent="xlgzFOz0VYX2NlcNm7eb-346" vertex="1">
          <mxGeometry y="26" width="350" height="26" as="geometry" />
        </mxCell>
        <mxCell id="xlgzFOz0VYX2NlcNm7eb-351" value="- driverRepository: DriverRepository" style="text;strokeColor=none;fillColor=none;align=left;verticalAlign=top;spacingLeft=4;spacingRight=4;overflow=hidden;rotatable=0;points=[[0,0.5],[1,0.5]];portConstraint=eastwest;whiteSpace=wrap;html=1;" parent="xlgzFOz0VYX2NlcNm7eb-346" vertex="1">
          <mxGeometry y="52" width="350" height="26" as="geometry" />
        </mxCell>
        <mxCell id="xlgzFOz0VYX2NlcNm7eb-350" value="- logger: Logger" style="text;strokeColor=none;fillColor=none;align=left;verticalAlign=top;spacingLeft=4;spacingRight=4;overflow=hidden;rotatable=0;points=[[0,0.5],[1,0.5]];portConstraint=eastwest;whiteSpace=wrap;html=1;" parent="xlgzFOz0VYX2NlcNm7eb-346" vertex="1">
          <mxGeometry y="78" width="350" height="26" as="geometry" />
        </mxCell>
        <mxCell id="xlgzFOz0VYX2NlcNm7eb-348" value="" style="line;strokeWidth=1;fillColor=none;align=left;verticalAlign=middle;spacingTop=-1;spacingLeft=3;spacingRight=3;rotatable=0;labelPosition=right;points=[];portConstraint=eastwest;strokeColor=inherit;" parent="xlgzFOz0VYX2NlcNm7eb-346" vertex="1">
          <mxGeometry y="104" width="350" height="12" as="geometry" />
        </mxCell>
        <mxCell id="xlgzFOz0VYX2NlcNm7eb-353" value="+ getUserRepository(String): UserRepository&amp;lt;UserDao&amp;gt;" style="text;strokeColor=none;fillColor=none;align=left;verticalAlign=top;spacingLeft=4;spacingRight=4;overflow=hidden;rotatable=0;points=[[0,0.5],[1,0.5]];portConstraint=eastwest;whiteSpace=wrap;html=1;" parent="xlgzFOz0VYX2NlcNm7eb-346" vertex="1">
          <mxGeometry y="116" width="350" height="26" as="geometry" />
        </mxCell>
        <mxCell id="xlgzFOz0VYX2NlcNm7eb-352" value="+ isAuthorized(ExtendedUserSigninDTO): boolean" style="text;strokeColor=none;fillColor=none;align=left;verticalAlign=top;spacingLeft=4;spacingRight=4;overflow=hidden;rotatable=0;points=[[0,0.5],[1,0.5]];portConstraint=eastwest;whiteSpace=wrap;html=1;" parent="xlgzFOz0VYX2NlcNm7eb-346" vertex="1">
          <mxGeometry y="142" width="350" height="26" as="geometry" />
        </mxCell>
        <mxCell id="xlgzFOz0VYX2NlcNm7eb-349" value="+ signIn(ExtendedUserSigninDTO): ExtendedUserSigninDTO" style="text;strokeColor=none;fillColor=none;align=left;verticalAlign=top;spacingLeft=4;spacingRight=4;overflow=hidden;rotatable=0;points=[[0,0.5],[1,0.5]];portConstraint=eastwest;whiteSpace=wrap;html=1;" parent="xlgzFOz0VYX2NlcNm7eb-346" vertex="1">
          <mxGeometry y="168" width="350" height="26" as="geometry" />
        </mxCell>
        <mxCell id="oRSVwbR3Z3SmRV7vV4Ph-59" style="edgeStyle=orthogonalEdgeStyle;rounded=0;orthogonalLoop=1;jettySize=auto;html=1;exitX=1;exitY=0;exitDx=0;exitDy=0;entryX=0.25;entryY=1;entryDx=0;entryDy=0;" edge="1" parent="1" source="xlgzFOz0VYX2NlcNm7eb-354" target="xlgzFOz0VYX2NlcNm7eb-218">
          <mxGeometry relative="1" as="geometry" />
        </mxCell>
        <mxCell id="xlgzFOz0VYX2NlcNm7eb-354" value="AbstractDriverController&amp;lt;T&amp;gt;" style="swimlane;fontStyle=1;align=center;verticalAlign=top;childLayout=stackLayout;horizontal=1;startSize=26;horizontalStack=0;resizeParent=1;resizeParentMax=0;resizeLast=0;collapsible=1;marginBottom=0;whiteSpace=wrap;html=1;" parent="1" vertex="1">
          <mxGeometry x="410" y="3370" width="350" height="194" as="geometry">
            <mxRectangle x="470" y="250" width="100" height="30" as="alternateBounds" />
          </mxGeometry>
        </mxCell>
        <mxCell id="xlgzFOz0VYX2NlcNm7eb-355" value="- driverService: DriverService&amp;lt;T&amp;gt;" style="text;strokeColor=none;fillColor=none;align=left;verticalAlign=top;spacingLeft=4;spacingRight=4;overflow=hidden;rotatable=0;points=[[0,0.5],[1,0.5]];portConstraint=eastwest;whiteSpace=wrap;html=1;" parent="xlgzFOz0VYX2NlcNm7eb-354" vertex="1">
          <mxGeometry y="26" width="350" height="26" as="geometry" />
        </mxCell>
        <mxCell id="xlgzFOz0VYX2NlcNm7eb-358" value="" style="line;strokeWidth=1;fillColor=none;align=left;verticalAlign=middle;spacingTop=-1;spacingLeft=3;spacingRight=3;rotatable=0;labelPosition=right;points=[];portConstraint=eastwest;strokeColor=inherit;" parent="xlgzFOz0VYX2NlcNm7eb-354" vertex="1">
          <mxGeometry y="52" width="350" height="12" as="geometry" />
        </mxCell>
        <mxCell id="xlgzFOz0VYX2NlcNm7eb-359" value="+ getAllDrivers(): ResponseEntity&amp;lt;List&amp;lt;T&amp;gt;&amp;gt;" style="text;strokeColor=none;fillColor=none;align=left;verticalAlign=top;spacingLeft=4;spacingRight=4;overflow=hidden;rotatable=0;points=[[0,0.5],[1,0.5]];portConstraint=eastwest;whiteSpace=wrap;html=1;" parent="xlgzFOz0VYX2NlcNm7eb-354" vertex="1">
          <mxGeometry y="64" width="350" height="26" as="geometry" />
        </mxCell>
        <mxCell id="xlgzFOz0VYX2NlcNm7eb-360" value="+ verifyDriverLicense(T): ResponseEntity&amp;lt;Boolean&amp;gt;" style="text;strokeColor=none;fillColor=none;align=left;verticalAlign=top;spacingLeft=4;spacingRight=4;overflow=hidden;rotatable=0;points=[[0,0.5],[1,0.5]];portConstraint=eastwest;whiteSpace=wrap;html=1;" parent="xlgzFOz0VYX2NlcNm7eb-354" vertex="1">
          <mxGeometry y="90" width="350" height="26" as="geometry" />
        </mxCell>
        <mxCell id="xlgzFOz0VYX2NlcNm7eb-361" value="+ isDriverAvailable(Long): ResponseEntity&amp;lt;Boolean&amp;gt;" style="text;strokeColor=none;fillColor=none;align=left;verticalAlign=top;spacingLeft=4;spacingRight=4;overflow=hidden;rotatable=0;points=[[0,0.5],[1,0.5]];portConstraint=eastwest;whiteSpace=wrap;html=1;" parent="xlgzFOz0VYX2NlcNm7eb-354" vertex="1">
          <mxGeometry y="116" width="350" height="26" as="geometry" />
        </mxCell>
        <mxCell id="xlgzFOz0VYX2NlcNm7eb-363" value="+ getDriverById(Long): ResponseEntity&amp;lt;T&amp;gt;" style="text;strokeColor=none;fillColor=none;align=left;verticalAlign=top;spacingLeft=4;spacingRight=4;overflow=hidden;rotatable=0;points=[[0,0.5],[1,0.5]];portConstraint=eastwest;whiteSpace=wrap;html=1;" parent="xlgzFOz0VYX2NlcNm7eb-354" vertex="1">
          <mxGeometry y="142" width="350" height="26" as="geometry" />
        </mxCell>
        <mxCell id="xlgzFOz0VYX2NlcNm7eb-362" value="+ updateDriver(T): ResponseEntity&amp;lt;?&amp;gt;" style="text;strokeColor=none;fillColor=none;align=left;verticalAlign=top;spacingLeft=4;spacingRight=4;overflow=hidden;rotatable=0;points=[[0,0.5],[1,0.5]];portConstraint=eastwest;whiteSpace=wrap;html=1;" parent="xlgzFOz0VYX2NlcNm7eb-354" vertex="1">
          <mxGeometry y="168" width="350" height="26" as="geometry" />
        </mxCell>
        <mxCell id="xlgzFOz0VYX2NlcNm7eb-364" value="AbstractPassengerController&amp;lt;T&amp;gt;" style="swimlane;fontStyle=1;align=center;verticalAlign=top;childLayout=stackLayout;horizontal=1;startSize=26;horizontalStack=0;resizeParent=1;resizeParentMax=0;resizeLast=0;collapsible=1;marginBottom=0;whiteSpace=wrap;html=1;" parent="1" vertex="1">
          <mxGeometry x="790" y="3370" width="320" height="116" as="geometry">
            <mxRectangle x="470" y="250" width="100" height="30" as="alternateBounds" />
          </mxGeometry>
        </mxCell>
        <mxCell id="xlgzFOz0VYX2NlcNm7eb-365" value="- passengerService: PassengerService&amp;lt;T&amp;gt;" style="text;strokeColor=none;fillColor=none;align=left;verticalAlign=top;spacingLeft=4;spacingRight=4;overflow=hidden;rotatable=0;points=[[0,0.5],[1,0.5]];portConstraint=eastwest;whiteSpace=wrap;html=1;" parent="xlgzFOz0VYX2NlcNm7eb-364" vertex="1">
          <mxGeometry y="26" width="320" height="26" as="geometry" />
        </mxCell>
        <mxCell id="xlgzFOz0VYX2NlcNm7eb-366" value="" style="line;strokeWidth=1;fillColor=none;align=left;verticalAlign=middle;spacingTop=-1;spacingLeft=3;spacingRight=3;rotatable=0;labelPosition=right;points=[];portConstraint=eastwest;strokeColor=inherit;" parent="xlgzFOz0VYX2NlcNm7eb-364" vertex="1">
          <mxGeometry y="52" width="320" height="12" as="geometry" />
        </mxCell>
        <mxCell id="xlgzFOz0VYX2NlcNm7eb-367" value="+ update(T): ResponseEntity&amp;lt;?&amp;gt;" style="text;strokeColor=none;fillColor=none;align=left;verticalAlign=top;spacingLeft=4;spacingRight=4;overflow=hidden;rotatable=0;points=[[0,0.5],[1,0.5]];portConstraint=eastwest;whiteSpace=wrap;html=1;" parent="xlgzFOz0VYX2NlcNm7eb-364" vertex="1">
          <mxGeometry y="64" width="320" height="26" as="geometry" />
        </mxCell>
        <mxCell id="xlgzFOz0VYX2NlcNm7eb-368" value="+ fetchAll(): ResponseEntity&amp;lt;List&amp;lt;T&amp;gt;&amp;gt;" style="text;strokeColor=none;fillColor=none;align=left;verticalAlign=top;spacingLeft=4;spacingRight=4;overflow=hidden;rotatable=0;points=[[0,0.5],[1,0.5]];portConstraint=eastwest;whiteSpace=wrap;html=1;" parent="xlgzFOz0VYX2NlcNm7eb-364" vertex="1">
          <mxGeometry y="90" width="320" height="26" as="geometry" />
        </mxCell>
        <mxCell id="xlgzFOz0VYX2NlcNm7eb-369" value="AbstractSignupController&amp;lt;T&amp;gt;" style="swimlane;fontStyle=1;align=center;verticalAlign=top;childLayout=stackLayout;horizontal=1;startSize=26;horizontalStack=0;resizeParent=1;resizeParentMax=0;resizeLast=0;collapsible=1;marginBottom=0;whiteSpace=wrap;html=1;" parent="1" vertex="1">
          <mxGeometry x="-1020" y="3709" width="320" height="90" as="geometry">
            <mxRectangle x="470" y="250" width="100" height="30" as="alternateBounds" />
          </mxGeometry>
        </mxCell>
        <mxCell id="xlgzFOz0VYX2NlcNm7eb-370" value="- signupService: SignupService&amp;lt;T&amp;gt;" style="text;strokeColor=none;fillColor=none;align=left;verticalAlign=top;spacingLeft=4;spacingRight=4;overflow=hidden;rotatable=0;points=[[0,0.5],[1,0.5]];portConstraint=eastwest;whiteSpace=wrap;html=1;" parent="xlgzFOz0VYX2NlcNm7eb-369" vertex="1">
          <mxGeometry y="26" width="320" height="26" as="geometry" />
        </mxCell>
        <mxCell id="xlgzFOz0VYX2NlcNm7eb-371" value="" style="line;strokeWidth=1;fillColor=none;align=left;verticalAlign=middle;spacingTop=-1;spacingLeft=3;spacingRight=3;rotatable=0;labelPosition=right;points=[];portConstraint=eastwest;strokeColor=inherit;" parent="xlgzFOz0VYX2NlcNm7eb-369" vertex="1">
          <mxGeometry y="52" width="320" height="12" as="geometry" />
        </mxCell>
        <mxCell id="xlgzFOz0VYX2NlcNm7eb-373" value="+ signUp(T): ResponseEntity&amp;lt;T&amp;gt;" style="text;strokeColor=none;fillColor=none;align=left;verticalAlign=top;spacingLeft=4;spacingRight=4;overflow=hidden;rotatable=0;points=[[0,0.5],[1,0.5]];portConstraint=eastwest;whiteSpace=wrap;html=1;" parent="xlgzFOz0VYX2NlcNm7eb-369" vertex="1">
          <mxGeometry y="64" width="320" height="26" as="geometry" />
        </mxCell>
        <mxCell id="oRSVwbR3Z3SmRV7vV4Ph-61" style="edgeStyle=orthogonalEdgeStyle;rounded=0;orthogonalLoop=1;jettySize=auto;html=1;exitX=0.75;exitY=0;exitDx=0;exitDy=0;entryX=0;entryY=0.5;entryDx=0;entryDy=0;dashed=1;" edge="1" parent="1" source="xlgzFOz0VYX2NlcNm7eb-374" target="xlgzFOz0VYX2NlcNm7eb-303">
          <mxGeometry relative="1" as="geometry" />
        </mxCell>
        <mxCell id="xlgzFOz0VYX2NlcNm7eb-374" value="DriverSignupServiceImpl" style="swimlane;fontStyle=1;align=center;verticalAlign=top;childLayout=stackLayout;horizontal=1;startSize=26;horizontalStack=0;resizeParent=1;resizeParentMax=0;resizeLast=0;collapsible=1;marginBottom=0;whiteSpace=wrap;html=1;" parent="1" vertex="1">
          <mxGeometry x="-680" y="3709" width="320" height="90" as="geometry">
            <mxRectangle x="470" y="250" width="100" height="30" as="alternateBounds" />
          </mxGeometry>
        </mxCell>
        <mxCell id="xlgzFOz0VYX2NlcNm7eb-375" value="- driverRepository: DriverRepository" style="text;strokeColor=none;fillColor=none;align=left;verticalAlign=top;spacingLeft=4;spacingRight=4;overflow=hidden;rotatable=0;points=[[0,0.5],[1,0.5]];portConstraint=eastwest;whiteSpace=wrap;html=1;" parent="xlgzFOz0VYX2NlcNm7eb-374" vertex="1">
          <mxGeometry y="26" width="320" height="26" as="geometry" />
        </mxCell>
        <mxCell id="xlgzFOz0VYX2NlcNm7eb-376" value="" style="line;strokeWidth=1;fillColor=none;align=left;verticalAlign=middle;spacingTop=-1;spacingLeft=3;spacingRight=3;rotatable=0;labelPosition=right;points=[];portConstraint=eastwest;strokeColor=inherit;" parent="xlgzFOz0VYX2NlcNm7eb-374" vertex="1">
          <mxGeometry y="52" width="320" height="12" as="geometry" />
        </mxCell>
        <mxCell id="xlgzFOz0VYX2NlcNm7eb-377" value="+ signUp(BaseUserSignupDTO): BaseUserSignupDTO" style="text;strokeColor=none;fillColor=none;align=left;verticalAlign=top;spacingLeft=4;spacingRight=4;overflow=hidden;rotatable=0;points=[[0,0.5],[1,0.5]];portConstraint=eastwest;whiteSpace=wrap;html=1;" parent="xlgzFOz0VYX2NlcNm7eb-374" vertex="1">
          <mxGeometry y="64" width="320" height="26" as="geometry" />
        </mxCell>
        <mxCell id="oRSVwbR3Z3SmRV7vV4Ph-43" style="edgeStyle=orthogonalEdgeStyle;rounded=0;orthogonalLoop=1;jettySize=auto;html=1;entryX=1;entryY=0.25;entryDx=0;entryDy=0;" edge="1" parent="1" source="xlgzFOz0VYX2NlcNm7eb-378" target="xlgzFOz0VYX2NlcNm7eb-258">
          <mxGeometry relative="1" as="geometry" />
        </mxCell>
        <mxCell id="oRSVwbR3Z3SmRV7vV4Ph-64" style="edgeStyle=orthogonalEdgeStyle;rounded=0;orthogonalLoop=1;jettySize=auto;html=1;entryX=0.5;entryY=1;entryDx=0;entryDy=0;" edge="1" parent="1" source="xlgzFOz0VYX2NlcNm7eb-378" target="xlgzFOz0VYX2NlcNm7eb-127">
          <mxGeometry relative="1" as="geometry" />
        </mxCell>
        <mxCell id="xlgzFOz0VYX2NlcNm7eb-378" value="SignoutServiceImpl" style="swimlane;fontStyle=1;align=center;verticalAlign=top;childLayout=stackLayout;horizontal=1;startSize=26;horizontalStack=0;resizeParent=1;resizeParentMax=0;resizeLast=0;collapsible=1;marginBottom=0;whiteSpace=wrap;html=1;" parent="1" vertex="1">
          <mxGeometry x="-280" y="3680" width="350" height="142" as="geometry">
            <mxRectangle x="470" y="250" width="100" height="30" as="alternateBounds" />
          </mxGeometry>
        </mxCell>
        <mxCell id="xlgzFOz0VYX2NlcNm7eb-380" value="- driverRepository: DriverRepository" style="text;strokeColor=none;fillColor=none;align=left;verticalAlign=top;spacingLeft=4;spacingRight=4;overflow=hidden;rotatable=0;points=[[0,0.5],[1,0.5]];portConstraint=eastwest;whiteSpace=wrap;html=1;" parent="xlgzFOz0VYX2NlcNm7eb-378" vertex="1">
          <mxGeometry y="26" width="350" height="26" as="geometry" />
        </mxCell>
        <mxCell id="xlgzFOz0VYX2NlcNm7eb-381" value="- passengerRepository: PassengerRepository" style="text;strokeColor=none;fillColor=none;align=left;verticalAlign=top;spacingLeft=4;spacingRight=4;overflow=hidden;rotatable=0;points=[[0,0.5],[1,0.5]];portConstraint=eastwest;whiteSpace=wrap;html=1;" parent="xlgzFOz0VYX2NlcNm7eb-378" vertex="1">
          <mxGeometry y="52" width="350" height="26" as="geometry" />
        </mxCell>
        <mxCell id="xlgzFOz0VYX2NlcNm7eb-382" value="" style="line;strokeWidth=1;fillColor=none;align=left;verticalAlign=middle;spacingTop=-1;spacingLeft=3;spacingRight=3;rotatable=0;labelPosition=right;points=[];portConstraint=eastwest;strokeColor=inherit;" parent="xlgzFOz0VYX2NlcNm7eb-378" vertex="1">
          <mxGeometry y="78" width="350" height="12" as="geometry" />
        </mxCell>
        <mxCell id="xlgzFOz0VYX2NlcNm7eb-383" value="+ getUserRepository(String): UserRepository&amp;lt;UserDao&amp;gt;" style="text;strokeColor=none;fillColor=none;align=left;verticalAlign=top;spacingLeft=4;spacingRight=4;overflow=hidden;rotatable=0;points=[[0,0.5],[1,0.5]];portConstraint=eastwest;whiteSpace=wrap;html=1;" parent="xlgzFOz0VYX2NlcNm7eb-378" vertex="1">
          <mxGeometry y="90" width="350" height="26" as="geometry" />
        </mxCell>
        <mxCell id="xlgzFOz0VYX2NlcNm7eb-385" value="+ signOut(BaseUserSignoutDTO): BaseUserSignoutDTO" style="text;strokeColor=none;fillColor=none;align=left;verticalAlign=top;spacingLeft=4;spacingRight=4;overflow=hidden;rotatable=0;points=[[0,0.5],[1,0.5]];portConstraint=eastwest;whiteSpace=wrap;html=1;" parent="xlgzFOz0VYX2NlcNm7eb-378" vertex="1">
          <mxGeometry y="116" width="350" height="26" as="geometry" />
        </mxCell>
        <mxCell id="oRSVwbR3Z3SmRV7vV4Ph-36" style="edgeStyle=orthogonalEdgeStyle;rounded=0;orthogonalLoop=1;jettySize=auto;html=1;exitX=0.75;exitY=0;exitDx=0;exitDy=0;entryX=1;entryY=0.5;entryDx=0;entryDy=0;" edge="1" parent="1" source="xlgzFOz0VYX2NlcNm7eb-386" target="xlgzFOz0VYX2NlcNm7eb-317">
          <mxGeometry relative="1" as="geometry">
            <Array as="points">
              <mxPoint x="512" y="3246" />
              <mxPoint x="1450" y="3246" />
              <mxPoint x="1450" y="2821" />
            </Array>
          </mxGeometry>
        </mxCell>
        <mxCell id="oRSVwbR3Z3SmRV7vV4Ph-39" value="Text" style="edgeLabel;html=1;align=center;verticalAlign=middle;resizable=0;points=[];" vertex="1" connectable="0" parent="oRSVwbR3Z3SmRV7vV4Ph-36">
          <mxGeometry x="-0.6067" y="-3" relative="1" as="geometry">
            <mxPoint as="offset" />
          </mxGeometry>
        </mxCell>
        <mxCell id="xlgzFOz0VYX2NlcNm7eb-386" value="DriverServiceImpl" style="swimlane;fontStyle=1;align=center;verticalAlign=top;childLayout=stackLayout;horizontal=1;startSize=26;horizontalStack=0;resizeParent=1;resizeParentMax=0;resizeLast=0;collapsible=1;marginBottom=0;whiteSpace=wrap;html=1;" parent="1" vertex="1">
          <mxGeometry x="250" y="3657" width="350" height="220" as="geometry">
            <mxRectangle x="470" y="250" width="100" height="30" as="alternateBounds" />
          </mxGeometry>
        </mxCell>
        <mxCell id="xlgzFOz0VYX2NlcNm7eb-387" value="- driverRepository: driverRepository" style="text;strokeColor=none;fillColor=none;align=left;verticalAlign=top;spacingLeft=4;spacingRight=4;overflow=hidden;rotatable=0;points=[[0,0.5],[1,0.5]];portConstraint=eastwest;whiteSpace=wrap;html=1;" parent="xlgzFOz0VYX2NlcNm7eb-386" vertex="1">
          <mxGeometry y="26" width="350" height="26" as="geometry" />
        </mxCell>
        <mxCell id="xlgzFOz0VYX2NlcNm7eb-388" value="" style="line;strokeWidth=1;fillColor=none;align=left;verticalAlign=middle;spacingTop=-1;spacingLeft=3;spacingRight=3;rotatable=0;labelPosition=right;points=[];portConstraint=eastwest;strokeColor=inherit;" parent="xlgzFOz0VYX2NlcNm7eb-386" vertex="1">
          <mxGeometry y="52" width="350" height="12" as="geometry" />
        </mxCell>
        <mxCell id="xlgzFOz0VYX2NlcNm7eb-389" value="+ findAllDrivers(): List&amp;lt;BaseDriverServiceDTO&amp;gt;" style="text;strokeColor=none;fillColor=none;align=left;verticalAlign=top;spacingLeft=4;spacingRight=4;overflow=hidden;rotatable=0;points=[[0,0.5],[1,0.5]];portConstraint=eastwest;whiteSpace=wrap;html=1;" parent="xlgzFOz0VYX2NlcNm7eb-386" vertex="1">
          <mxGeometry y="64" width="350" height="26" as="geometry" />
        </mxCell>
        <mxCell id="xlgzFOz0VYX2NlcNm7eb-390" value="+ convertToDTO(DriverDTO): BaseDriverServiceDTO" style="text;strokeColor=none;fillColor=none;align=left;verticalAlign=top;spacingLeft=4;spacingRight=4;overflow=hidden;rotatable=0;points=[[0,0.5],[1,0.5]];portConstraint=eastwest;whiteSpace=wrap;html=1;" parent="xlgzFOz0VYX2NlcNm7eb-386" vertex="1">
          <mxGeometry y="90" width="350" height="26" as="geometry" />
        </mxCell>
        <mxCell id="xlgzFOz0VYX2NlcNm7eb-393" value="+ update(BaseDriverServiceDTO): BaseDriverServiceDTO" style="text;strokeColor=none;fillColor=none;align=left;verticalAlign=top;spacingLeft=4;spacingRight=4;overflow=hidden;rotatable=0;points=[[0,0.5],[1,0.5]];portConstraint=eastwest;whiteSpace=wrap;html=1;" parent="xlgzFOz0VYX2NlcNm7eb-386" vertex="1">
          <mxGeometry y="116" width="350" height="26" as="geometry" />
        </mxCell>
        <mxCell id="xlgzFOz0VYX2NlcNm7eb-391" value="+ verifyDriverLicencse(BaseDriverServiceDTO): Boolean" style="text;strokeColor=none;fillColor=none;align=left;verticalAlign=top;spacingLeft=4;spacingRight=4;overflow=hidden;rotatable=0;points=[[0,0.5],[1,0.5]];portConstraint=eastwest;whiteSpace=wrap;html=1;" parent="xlgzFOz0VYX2NlcNm7eb-386" vertex="1">
          <mxGeometry y="142" width="350" height="26" as="geometry" />
        </mxCell>
        <mxCell id="xlgzFOz0VYX2NlcNm7eb-392" value="+ findById(Long): BaseDriverServiceDTO" style="text;strokeColor=none;fillColor=none;align=left;verticalAlign=top;spacingLeft=4;spacingRight=4;overflow=hidden;rotatable=0;points=[[0,0.5],[1,0.5]];portConstraint=eastwest;whiteSpace=wrap;html=1;" parent="xlgzFOz0VYX2NlcNm7eb-386" vertex="1">
          <mxGeometry y="168" width="350" height="26" as="geometry" />
        </mxCell>
        <mxCell id="xlgzFOz0VYX2NlcNm7eb-394" value="+ isDriverAvailable(Long): boolean" style="text;strokeColor=none;fillColor=none;align=left;verticalAlign=top;spacingLeft=4;spacingRight=4;overflow=hidden;rotatable=0;points=[[0,0.5],[1,0.5]];portConstraint=eastwest;whiteSpace=wrap;html=1;" parent="xlgzFOz0VYX2NlcNm7eb-386" vertex="1">
          <mxGeometry y="194" width="350" height="26" as="geometry" />
        </mxCell>
        <mxCell id="oRSVwbR3Z3SmRV7vV4Ph-29" style="edgeStyle=orthogonalEdgeStyle;rounded=0;orthogonalLoop=1;jettySize=auto;html=1;entryX=1;entryY=0;entryDx=0;entryDy=0;" edge="1" parent="1" source="xlgzFOz0VYX2NlcNm7eb-395" target="xlgzFOz0VYX2NlcNm7eb-320">
          <mxGeometry relative="1" as="geometry">
            <Array as="points">
              <mxPoint x="1900" y="3728" />
              <mxPoint x="1900" y="2650" />
              <mxPoint x="1770" y="2650" />
            </Array>
          </mxGeometry>
        </mxCell>
        <mxCell id="oRSVwbR3Z3SmRV7vV4Ph-30" value="Text" style="edgeLabel;html=1;align=center;verticalAlign=middle;resizable=0;points=[];" vertex="1" connectable="0" parent="oRSVwbR3Z3SmRV7vV4Ph-29">
          <mxGeometry x="0.1515" relative="1" as="geometry">
            <mxPoint y="1" as="offset" />
          </mxGeometry>
        </mxCell>
        <mxCell id="xlgzFOz0VYX2NlcNm7eb-395" value="PassengerServiceImpl" style="swimlane;fontStyle=1;align=center;verticalAlign=top;childLayout=stackLayout;horizontal=1;startSize=26;horizontalStack=0;resizeParent=1;resizeParentMax=0;resizeLast=0;collapsible=1;marginBottom=0;whiteSpace=wrap;html=1;" parent="1" vertex="1">
          <mxGeometry x="680" y="3657" width="380" height="142" as="geometry">
            <mxRectangle x="470" y="250" width="100" height="30" as="alternateBounds" />
          </mxGeometry>
        </mxCell>
        <mxCell id="xlgzFOz0VYX2NlcNm7eb-396" value="- passengerRepository: PassengerRepository" style="text;strokeColor=none;fillColor=none;align=left;verticalAlign=top;spacingLeft=4;spacingRight=4;overflow=hidden;rotatable=0;points=[[0,0.5],[1,0.5]];portConstraint=eastwest;whiteSpace=wrap;html=1;" parent="xlgzFOz0VYX2NlcNm7eb-395" vertex="1">
          <mxGeometry y="26" width="380" height="26" as="geometry" />
        </mxCell>
        <mxCell id="xlgzFOz0VYX2NlcNm7eb-397" value="" style="line;strokeWidth=1;fillColor=none;align=left;verticalAlign=middle;spacingTop=-1;spacingLeft=3;spacingRight=3;rotatable=0;labelPosition=right;points=[];portConstraint=eastwest;strokeColor=inherit;" parent="xlgzFOz0VYX2NlcNm7eb-395" vertex="1">
          <mxGeometry y="52" width="380" height="12" as="geometry" />
        </mxCell>
        <mxCell id="xlgzFOz0VYX2NlcNm7eb-399" value="+ convertToDTO(PassengerDTO): BasePassengerServiceDTO" style="text;strokeColor=none;fillColor=none;align=left;verticalAlign=top;spacingLeft=4;spacingRight=4;overflow=hidden;rotatable=0;points=[[0,0.5],[1,0.5]];portConstraint=eastwest;whiteSpace=wrap;html=1;" parent="xlgzFOz0VYX2NlcNm7eb-395" vertex="1">
          <mxGeometry y="64" width="380" height="26" as="geometry" />
        </mxCell>
        <mxCell id="xlgzFOz0VYX2NlcNm7eb-400" value="+ update(BasePassengerServiceDTO): BasePassengerServiceDTO" style="text;strokeColor=none;fillColor=none;align=left;verticalAlign=top;spacingLeft=4;spacingRight=4;overflow=hidden;rotatable=0;points=[[0,0.5],[1,0.5]];portConstraint=eastwest;whiteSpace=wrap;html=1;" parent="xlgzFOz0VYX2NlcNm7eb-395" vertex="1">
          <mxGeometry y="90" width="380" height="26" as="geometry" />
        </mxCell>
        <mxCell id="xlgzFOz0VYX2NlcNm7eb-403" value="+ fetchAllPassenger(): List&amp;lt;PassengerDao&amp;gt;" style="text;strokeColor=none;fillColor=none;align=left;verticalAlign=top;spacingLeft=4;spacingRight=4;overflow=hidden;rotatable=0;points=[[0,0.5],[1,0.5]];portConstraint=eastwest;whiteSpace=wrap;html=1;" parent="xlgzFOz0VYX2NlcNm7eb-395" vertex="1">
          <mxGeometry y="116" width="380" height="26" as="geometry" />
        </mxCell>
        <mxCell id="oRSVwbR3Z3SmRV7vV4Ph-25" style="edgeStyle=orthogonalEdgeStyle;rounded=0;orthogonalLoop=1;jettySize=auto;html=1;" edge="1" parent="1" source="xlgzFOz0VYX2NlcNm7eb-404">
          <mxGeometry relative="1" as="geometry">
            <mxPoint x="-870" y="3800.000000000001" as="targetPoint" />
          </mxGeometry>
        </mxCell>
        <mxCell id="xlgzFOz0VYX2NlcNm7eb-404" value="PassengerSignupControllerImplement" style="swimlane;fontStyle=1;align=center;verticalAlign=top;childLayout=stackLayout;horizontal=1;startSize=26;horizontalStack=0;resizeParent=1;resizeParentMax=0;resizeLast=0;collapsible=1;marginBottom=0;whiteSpace=wrap;html=1;" parent="1" vertex="1">
          <mxGeometry x="-1040" y="4100" width="320" height="64" as="geometry">
            <mxRectangle x="470" y="250" width="100" height="30" as="alternateBounds" />
          </mxGeometry>
        </mxCell>
        <mxCell id="xlgzFOz0VYX2NlcNm7eb-405" value="- signupService: PassengerSignupServiceImpl" style="text;strokeColor=none;fillColor=none;align=left;verticalAlign=top;spacingLeft=4;spacingRight=4;overflow=hidden;rotatable=0;points=[[0,0.5],[1,0.5]];portConstraint=eastwest;whiteSpace=wrap;html=1;" parent="xlgzFOz0VYX2NlcNm7eb-404" vertex="1">
          <mxGeometry y="26" width="320" height="26" as="geometry" />
        </mxCell>
        <mxCell id="xlgzFOz0VYX2NlcNm7eb-406" value="" style="line;strokeWidth=1;fillColor=none;align=left;verticalAlign=middle;spacingTop=-1;spacingLeft=3;spacingRight=3;rotatable=0;labelPosition=right;points=[];portConstraint=eastwest;strokeColor=inherit;" parent="xlgzFOz0VYX2NlcNm7eb-404" vertex="1">
          <mxGeometry y="52" width="320" height="12" as="geometry" />
        </mxCell>
        <mxCell id="xlgzFOz0VYX2NlcNm7eb-408" value="DriverSignupControllerImplement" style="swimlane;fontStyle=1;align=center;verticalAlign=top;childLayout=stackLayout;horizontal=1;startSize=26;horizontalStack=0;resizeParent=1;resizeParentMax=0;resizeLast=0;collapsible=1;marginBottom=0;whiteSpace=wrap;html=1;" parent="1" vertex="1">
          <mxGeometry x="-720" y="3980" width="320" height="64" as="geometry">
            <mxRectangle x="470" y="250" width="100" height="30" as="alternateBounds" />
          </mxGeometry>
        </mxCell>
        <mxCell id="xlgzFOz0VYX2NlcNm7eb-409" value="- signupService: DriverSignupServiceImpl" style="text;strokeColor=none;fillColor=none;align=left;verticalAlign=top;spacingLeft=4;spacingRight=4;overflow=hidden;rotatable=0;points=[[0,0.5],[1,0.5]];portConstraint=eastwest;whiteSpace=wrap;html=1;" parent="xlgzFOz0VYX2NlcNm7eb-408" vertex="1">
          <mxGeometry y="26" width="320" height="26" as="geometry" />
        </mxCell>
        <mxCell id="xlgzFOz0VYX2NlcNm7eb-410" value="" style="line;strokeWidth=1;fillColor=none;align=left;verticalAlign=middle;spacingTop=-1;spacingLeft=3;spacingRight=3;rotatable=0;labelPosition=right;points=[];portConstraint=eastwest;strokeColor=inherit;" parent="xlgzFOz0VYX2NlcNm7eb-408" vertex="1">
          <mxGeometry y="52" width="320" height="12" as="geometry" />
        </mxCell>
        <mxCell id="oRSVwbR3Z3SmRV7vV4Ph-20" style="edgeStyle=orthogonalEdgeStyle;rounded=0;orthogonalLoop=1;jettySize=auto;html=1;entryX=0;entryY=0.5;entryDx=0;entryDy=0;" edge="1" parent="1" source="xlgzFOz0VYX2NlcNm7eb-411" target="xlgzFOz0VYX2NlcNm7eb-345">
          <mxGeometry relative="1" as="geometry">
            <Array as="points">
              <mxPoint x="-300" y="3785" />
              <mxPoint x="-340" y="3785" />
              <mxPoint x="-340" y="3447" />
            </Array>
          </mxGeometry>
        </mxCell>
        <mxCell id="oRSVwbR3Z3SmRV7vV4Ph-21" value="Text" style="edgeLabel;html=1;align=center;verticalAlign=middle;resizable=0;points=[];" vertex="1" connectable="0" parent="oRSVwbR3Z3SmRV7vV4Ph-20">
          <mxGeometry x="0.6944" relative="1" as="geometry">
            <mxPoint as="offset" />
          </mxGeometry>
        </mxCell>
        <mxCell id="xlgzFOz0VYX2NlcNm7eb-411" value="SignoutControllerImplement" style="swimlane;fontStyle=1;align=center;verticalAlign=top;childLayout=stackLayout;horizontal=1;startSize=26;horizontalStack=0;resizeParent=1;resizeParentMax=0;resizeLast=0;collapsible=1;marginBottom=0;whiteSpace=wrap;html=1;" parent="1" vertex="1">
          <mxGeometry x="-390" y="4110" width="320" height="64" as="geometry">
            <mxRectangle x="470" y="250" width="100" height="30" as="alternateBounds" />
          </mxGeometry>
        </mxCell>
        <mxCell id="xlgzFOz0VYX2NlcNm7eb-412" value="- signoutService: SignoutServiceImpl" style="text;strokeColor=none;fillColor=none;align=left;verticalAlign=top;spacingLeft=4;spacingRight=4;overflow=hidden;rotatable=0;points=[[0,0.5],[1,0.5]];portConstraint=eastwest;whiteSpace=wrap;html=1;" parent="xlgzFOz0VYX2NlcNm7eb-411" vertex="1">
          <mxGeometry y="26" width="320" height="26" as="geometry" />
        </mxCell>
        <mxCell id="xlgzFOz0VYX2NlcNm7eb-413" value="" style="line;strokeWidth=1;fillColor=none;align=left;verticalAlign=middle;spacingTop=-1;spacingLeft=3;spacingRight=3;rotatable=0;labelPosition=right;points=[];portConstraint=eastwest;strokeColor=inherit;" parent="xlgzFOz0VYX2NlcNm7eb-411" vertex="1">
          <mxGeometry y="52" width="320" height="12" as="geometry" />
        </mxCell>
        <mxCell id="xlgzFOz0VYX2NlcNm7eb-414" value="AuthControllerImplement" style="swimlane;fontStyle=1;align=center;verticalAlign=top;childLayout=stackLayout;horizontal=1;startSize=26;horizontalStack=0;resizeParent=1;resizeParentMax=0;resizeLast=0;collapsible=1;marginBottom=0;whiteSpace=wrap;html=1;" parent="1" vertex="1">
          <mxGeometry x="10" y="3980" width="440" height="90" as="geometry">
            <mxRectangle x="470" y="250" width="100" height="30" as="alternateBounds" />
          </mxGeometry>
        </mxCell>
        <mxCell id="xlgzFOz0VYX2NlcNm7eb-416" value="- extendedAuthService: ExtendedAuthServiceImpl" style="text;strokeColor=none;fillColor=none;align=left;verticalAlign=top;spacingLeft=4;spacingRight=4;overflow=hidden;rotatable=0;points=[[0,0.5],[1,0.5]];portConstraint=eastwest;whiteSpace=wrap;html=1;" parent="xlgzFOz0VYX2NlcNm7eb-414" vertex="1">
          <mxGeometry y="26" width="440" height="26" as="geometry" />
        </mxCell>
        <mxCell id="xlgzFOz0VYX2NlcNm7eb-417" value="" style="line;strokeWidth=1;fillColor=none;align=left;verticalAlign=middle;spacingTop=-1;spacingLeft=3;spacingRight=3;rotatable=0;labelPosition=right;points=[];portConstraint=eastwest;strokeColor=inherit;" parent="xlgzFOz0VYX2NlcNm7eb-414" vertex="1">
          <mxGeometry y="52" width="440" height="12" as="geometry" />
        </mxCell>
        <mxCell id="xlgzFOz0VYX2NlcNm7eb-419" value="+ signIn(ExtendedUserSigninDTO): ResponseEntity&amp;lt;ExtendedUserSigninDTO&amp;gt;" style="text;strokeColor=none;fillColor=none;align=left;verticalAlign=top;spacingLeft=4;spacingRight=4;overflow=hidden;rotatable=0;points=[[0,0.5],[1,0.5]];portConstraint=eastwest;whiteSpace=wrap;html=1;" parent="xlgzFOz0VYX2NlcNm7eb-414" vertex="1">
          <mxGeometry y="64" width="440" height="26" as="geometry" />
        </mxCell>
        <mxCell id="xlgzFOz0VYX2NlcNm7eb-420" value="DriverControllerImplement" style="swimlane;fontStyle=1;align=center;verticalAlign=top;childLayout=stackLayout;horizontal=1;startSize=26;horizontalStack=0;resizeParent=1;resizeParentMax=0;resizeLast=0;collapsible=1;marginBottom=0;whiteSpace=wrap;html=1;" parent="1" vertex="1">
          <mxGeometry x="470" y="4087" width="440" height="90" as="geometry">
            <mxRectangle x="470" y="250" width="100" height="30" as="alternateBounds" />
          </mxGeometry>
        </mxCell>
        <mxCell id="xlgzFOz0VYX2NlcNm7eb-421" value="- driverService: DriverServiceImpl" style="text;strokeColor=none;fillColor=none;align=left;verticalAlign=top;spacingLeft=4;spacingRight=4;overflow=hidden;rotatable=0;points=[[0,0.5],[1,0.5]];portConstraint=eastwest;whiteSpace=wrap;html=1;" parent="xlgzFOz0VYX2NlcNm7eb-420" vertex="1">
          <mxGeometry y="26" width="440" height="26" as="geometry" />
        </mxCell>
        <mxCell id="xlgzFOz0VYX2NlcNm7eb-422" value="" style="line;strokeWidth=1;fillColor=none;align=left;verticalAlign=middle;spacingTop=-1;spacingLeft=3;spacingRight=3;rotatable=0;labelPosition=right;points=[];portConstraint=eastwest;strokeColor=inherit;" parent="xlgzFOz0VYX2NlcNm7eb-420" vertex="1">
          <mxGeometry y="52" width="440" height="12" as="geometry" />
        </mxCell>
        <mxCell id="xlgzFOz0VYX2NlcNm7eb-423" value="+ getDriverById(Long): ResponseEntity&amp;lt;BaseDriverServiceDTO&amp;gt;" style="text;strokeColor=none;fillColor=none;align=left;verticalAlign=top;spacingLeft=4;spacingRight=4;overflow=hidden;rotatable=0;points=[[0,0.5],[1,0.5]];portConstraint=eastwest;whiteSpace=wrap;html=1;" parent="xlgzFOz0VYX2NlcNm7eb-420" vertex="1">
          <mxGeometry y="64" width="440" height="26" as="geometry" />
        </mxCell>
        <mxCell id="oRSVwbR3Z3SmRV7vV4Ph-15" style="edgeStyle=orthogonalEdgeStyle;rounded=0;orthogonalLoop=1;jettySize=auto;html=1;entryX=1;entryY=0;entryDx=0;entryDy=0;" edge="1" parent="1" source="xlgzFOz0VYX2NlcNm7eb-424" target="xlgzFOz0VYX2NlcNm7eb-364">
          <mxGeometry relative="1" as="geometry" />
        </mxCell>
        <mxCell id="xlgzFOz0VYX2NlcNm7eb-424" value="PassengerControllerImplement" style="swimlane;fontStyle=1;align=center;verticalAlign=top;childLayout=stackLayout;horizontal=1;startSize=26;horizontalStack=0;resizeParent=1;resizeParentMax=0;resizeLast=0;collapsible=1;marginBottom=0;whiteSpace=wrap;html=1;" parent="1" vertex="1">
          <mxGeometry x="950" y="4006" width="320" height="64" as="geometry">
            <mxRectangle x="470" y="250" width="100" height="30" as="alternateBounds" />
          </mxGeometry>
        </mxCell>
        <mxCell id="xlgzFOz0VYX2NlcNm7eb-425" value="- passengerService: PassengerServiceLmpl" style="text;strokeColor=none;fillColor=none;align=left;verticalAlign=top;spacingLeft=4;spacingRight=4;overflow=hidden;rotatable=0;points=[[0,0.5],[1,0.5]];portConstraint=eastwest;whiteSpace=wrap;html=1;" parent="xlgzFOz0VYX2NlcNm7eb-424" vertex="1">
          <mxGeometry y="26" width="320" height="26" as="geometry" />
        </mxCell>
        <mxCell id="xlgzFOz0VYX2NlcNm7eb-426" value="" style="line;strokeWidth=1;fillColor=none;align=left;verticalAlign=middle;spacingTop=-1;spacingLeft=3;spacingRight=3;rotatable=0;labelPosition=right;points=[];portConstraint=eastwest;strokeColor=inherit;" parent="xlgzFOz0VYX2NlcNm7eb-424" vertex="1">
          <mxGeometry y="52" width="320" height="12" as="geometry" />
        </mxCell>
        <mxCell id="xlgzFOz0VYX2NlcNm7eb-427" value="For the sake of cleanliness, we did not put the getter and setter" style="shape=note;whiteSpace=wrap;html=1;backgroundOutline=1;darkOpacity=0.05;" parent="1" vertex="1">
          <mxGeometry x="760" y="169" width="190" height="171" as="geometry" />
        </mxCell>
        <mxCell id="oRSVwbR3Z3SmRV7vV4Ph-3" value="1" style="endArrow=open;html=1;endSize=12;startArrow=diamondThin;startSize=14;startFill=1;edgeStyle=orthogonalEdgeStyle;align=left;verticalAlign=bottom;rounded=0;exitX=0.5;exitY=0;exitDx=0;exitDy=0;entryX=0.5;entryY=0;entryDx=0;entryDy=0;" edge="1" parent="1" source="xlgzFOz0VYX2NlcNm7eb-19" target="xlgzFOz0VYX2NlcNm7eb-1">
          <mxGeometry x="-1" y="3" relative="1" as="geometry">
            <mxPoint x="100" y="287.94" as="sourcePoint" />
            <mxPoint x="170" y="250" as="targetPoint" />
            <Array as="points">
              <mxPoint x="140" y="288" />
              <mxPoint x="160" y="288" />
              <mxPoint x="160" y="260" />
              <mxPoint x="170" y="260" />
              <mxPoint x="170" y="40" />
            </Array>
          </mxGeometry>
        </mxCell>
        <mxCell id="oRSVwbR3Z3SmRV7vV4Ph-5" style="edgeStyle=orthogonalEdgeStyle;rounded=0;orthogonalLoop=1;jettySize=auto;html=1;entryX=0.471;entryY=1.167;entryDx=0;entryDy=0;entryPerimeter=0;" edge="1" parent="1" source="xlgzFOz0VYX2NlcNm7eb-246" target="xlgzFOz0VYX2NlcNm7eb-35">
          <mxGeometry relative="1" as="geometry">
            <Array as="points">
              <mxPoint x="-320" y="610" />
            </Array>
          </mxGeometry>
        </mxCell>
        <mxCell id="oRSVwbR3Z3SmRV7vV4Ph-8" style="edgeStyle=orthogonalEdgeStyle;rounded=0;orthogonalLoop=1;jettySize=auto;html=1;entryX=0.516;entryY=1.423;entryDx=0;entryDy=0;entryPerimeter=0;" edge="1" parent="1" source="xlgzFOz0VYX2NlcNm7eb-277" target="xlgzFOz0VYX2NlcNm7eb-35">
          <mxGeometry relative="1" as="geometry">
            <Array as="points">
              <mxPoint x="-390" y="2728" />
              <mxPoint x="-390" y="617" />
            </Array>
          </mxGeometry>
        </mxCell>
        <mxCell id="oRSVwbR3Z3SmRV7vV4Ph-9" value="Text" style="edgeLabel;html=1;align=center;verticalAlign=middle;resizable=0;points=[];" vertex="1" connectable="0" parent="oRSVwbR3Z3SmRV7vV4Ph-8">
          <mxGeometry x="-0.3997" y="-5" relative="1" as="geometry">
            <mxPoint y="-1" as="offset" />
          </mxGeometry>
        </mxCell>
        <mxCell id="oRSVwbR3Z3SmRV7vV4Ph-10" value="Use" style="endArrow=open;endSize=12;dashed=1;html=1;rounded=0;exitX=0.5;exitY=0;exitDx=0;exitDy=0;entryX=1;entryY=0;entryDx=0;entryDy=0;" edge="1" parent="1" source="xlgzFOz0VYX2NlcNm7eb-209" target="xlgzFOz0VYX2NlcNm7eb-19">
          <mxGeometry y="-30" width="160" relative="1" as="geometry">
            <mxPoint x="700" y="1210" as="sourcePoint" />
            <mxPoint x="640" y="270" as="targetPoint" />
            <Array as="points">
              <mxPoint x="870" y="640" />
            </Array>
            <mxPoint as="offset" />
          </mxGeometry>
        </mxCell>
        <mxCell id="oRSVwbR3Z3SmRV7vV4Ph-13" style="edgeStyle=orthogonalEdgeStyle;rounded=0;orthogonalLoop=1;jettySize=auto;html=1;entryX=0.483;entryY=1.063;entryDx=0;entryDy=0;entryPerimeter=0;" edge="1" parent="1" source="xlgzFOz0VYX2NlcNm7eb-420" target="xlgzFOz0VYX2NlcNm7eb-362">
          <mxGeometry relative="1" as="geometry">
            <Array as="points">
              <mxPoint x="690" y="3826" />
              <mxPoint x="630" y="3826" />
              <mxPoint x="630" y="3566" />
            </Array>
          </mxGeometry>
        </mxCell>
        <mxCell id="oRSVwbR3Z3SmRV7vV4Ph-14" value="Text" style="edgeLabel;html=1;align=center;verticalAlign=middle;resizable=0;points=[];" vertex="1" connectable="0" parent="oRSVwbR3Z3SmRV7vV4Ph-13">
          <mxGeometry x="0.3546" y="-3" relative="1" as="geometry">
            <mxPoint as="offset" />
          </mxGeometry>
        </mxCell>
        <mxCell id="oRSVwbR3Z3SmRV7vV4Ph-16" value="1" style="endArrow=open;html=1;endSize=12;startArrow=diamondThin;startSize=14;startFill=1;edgeStyle=orthogonalEdgeStyle;align=left;verticalAlign=bottom;rounded=0;exitX=0;exitY=0.5;exitDx=0;exitDy=0;" edge="1" parent="1" source="xlgzFOz0VYX2NlcNm7eb-424" target="xlgzFOz0VYX2NlcNm7eb-403">
          <mxGeometry x="-1" y="3" relative="1" as="geometry">
            <mxPoint x="890" y="3910" as="sourcePoint" />
            <mxPoint x="1050" y="3910" as="targetPoint" />
          </mxGeometry>
        </mxCell>
        <mxCell id="oRSVwbR3Z3SmRV7vV4Ph-17" value="1" style="endArrow=open;html=1;endSize=12;startArrow=diamondThin;startSize=14;startFill=1;edgeStyle=orthogonalEdgeStyle;align=left;verticalAlign=bottom;rounded=0;exitX=0.25;exitY=0;exitDx=0;exitDy=0;" edge="1" parent="1" source="xlgzFOz0VYX2NlcNm7eb-420" target="xlgzFOz0VYX2NlcNm7eb-394">
          <mxGeometry x="-1" y="3" relative="1" as="geometry">
            <mxPoint x="480" y="3950" as="sourcePoint" />
            <mxPoint x="640" y="3950" as="targetPoint" />
          </mxGeometry>
        </mxCell>
        <mxCell id="oRSVwbR3Z3SmRV7vV4Ph-18" value="1" style="endArrow=open;html=1;endSize=12;startArrow=diamondThin;startSize=14;startFill=1;edgeStyle=orthogonalEdgeStyle;align=left;verticalAlign=bottom;rounded=0;exitX=0.25;exitY=0;exitDx=0;exitDy=0;entryX=0;entryY=0.5;entryDx=0;entryDy=0;" edge="1" parent="1" source="xlgzFOz0VYX2NlcNm7eb-414" target="xlgzFOz0VYX2NlcNm7eb-349">
          <mxGeometry x="-1" y="3" relative="1" as="geometry">
            <mxPoint x="140" y="3700" as="sourcePoint" />
            <mxPoint x="300" y="3700" as="targetPoint" />
            <Array as="points">
              <mxPoint x="120" y="3580" />
              <mxPoint x="20" y="3580" />
            </Array>
          </mxGeometry>
        </mxCell>
        <mxCell id="oRSVwbR3Z3SmRV7vV4Ph-19" value="Text" style="edgeLabel;html=1;align=center;verticalAlign=middle;resizable=0;points=[];" vertex="1" connectable="0" parent="oRSVwbR3Z3SmRV7vV4Ph-18">
          <mxGeometry x="0.6179" y="-1" relative="1" as="geometry">
            <mxPoint as="offset" />
          </mxGeometry>
        </mxCell>
        <mxCell id="oRSVwbR3Z3SmRV7vV4Ph-22" value="1" style="endArrow=open;html=1;endSize=12;startArrow=diamondThin;startSize=14;startFill=1;edgeStyle=orthogonalEdgeStyle;align=left;verticalAlign=bottom;rounded=0;exitX=0.5;exitY=0;exitDx=0;exitDy=0;entryX=0.465;entryY=1.186;entryDx=0;entryDy=0;entryPerimeter=0;" edge="1" parent="1" source="xlgzFOz0VYX2NlcNm7eb-411" target="xlgzFOz0VYX2NlcNm7eb-385">
          <mxGeometry x="-1" y="3" relative="1" as="geometry">
            <mxPoint x="-60" y="3760" as="sourcePoint" />
            <mxPoint x="100" y="3760" as="targetPoint" />
          </mxGeometry>
        </mxCell>
        <mxCell id="oRSVwbR3Z3SmRV7vV4Ph-23" style="edgeStyle=orthogonalEdgeStyle;rounded=0;orthogonalLoop=1;jettySize=auto;html=1;entryX=0.433;entryY=1.15;entryDx=0;entryDy=0;entryPerimeter=0;" edge="1" parent="1" source="xlgzFOz0VYX2NlcNm7eb-408" target="xlgzFOz0VYX2NlcNm7eb-373">
          <mxGeometry relative="1" as="geometry">
            <Array as="points">
              <mxPoint x="-850" y="4012" />
              <mxPoint x="-850" y="3803" />
            </Array>
          </mxGeometry>
        </mxCell>
        <mxCell id="oRSVwbR3Z3SmRV7vV4Ph-24" value="Text" style="edgeLabel;html=1;align=center;verticalAlign=middle;resizable=0;points=[];" vertex="1" connectable="0" parent="oRSVwbR3Z3SmRV7vV4Ph-23">
          <mxGeometry x="-0.45" relative="1" as="geometry">
            <mxPoint as="offset" />
          </mxGeometry>
        </mxCell>
        <mxCell id="oRSVwbR3Z3SmRV7vV4Ph-26" value="1" style="endArrow=open;html=1;endSize=12;startArrow=diamondThin;startSize=14;startFill=1;edgeStyle=orthogonalEdgeStyle;align=left;verticalAlign=bottom;rounded=0;exitX=0.5;exitY=0;exitDx=0;exitDy=0;entryX=0.519;entryY=1.107;entryDx=0;entryDy=0;entryPerimeter=0;" edge="1" parent="1" source="xlgzFOz0VYX2NlcNm7eb-408" target="xlgzFOz0VYX2NlcNm7eb-377">
          <mxGeometry x="-1" y="3" relative="1" as="geometry">
            <mxPoint x="-710" y="3720" as="sourcePoint" />
            <mxPoint x="-550" y="3720" as="targetPoint" />
          </mxGeometry>
        </mxCell>
        <mxCell id="oRSVwbR3Z3SmRV7vV4Ph-27" value="1" style="endArrow=open;html=1;endSize=12;startArrow=diamondThin;startSize=14;startFill=1;edgeStyle=orthogonalEdgeStyle;align=left;verticalAlign=bottom;rounded=0;exitX=0.25;exitY=0;exitDx=0;exitDy=0;entryX=0;entryY=0.5;entryDx=0;entryDy=0;" edge="1" parent="1" source="xlgzFOz0VYX2NlcNm7eb-404" target="xlgzFOz0VYX2NlcNm7eb-341">
          <mxGeometry x="-1" y="3" relative="1" as="geometry">
            <mxPoint x="-1070" y="3930" as="sourcePoint" />
            <mxPoint x="-1050" y="3530" as="targetPoint" />
          </mxGeometry>
        </mxCell>
        <mxCell id="oRSVwbR3Z3SmRV7vV4Ph-28" value="1" style="endArrow=open;html=1;endSize=12;startArrow=diamondThin;startSize=14;startFill=1;edgeStyle=orthogonalEdgeStyle;align=left;verticalAlign=bottom;rounded=0;exitX=0.75;exitY=0;exitDx=0;exitDy=0;entryX=1;entryY=0.5;entryDx=0;entryDy=0;" edge="1" parent="1" source="xlgzFOz0VYX2NlcNm7eb-364" target="xlgzFOz0VYX2NlcNm7eb-324">
          <mxGeometry x="-1" y="3" relative="1" as="geometry">
            <mxPoint x="1130" y="3100" as="sourcePoint" />
            <mxPoint x="1290" y="3100" as="targetPoint" />
          </mxGeometry>
        </mxCell>
        <mxCell id="oRSVwbR3Z3SmRV7vV4Ph-35" value="1" style="endArrow=open;html=1;endSize=12;startArrow=diamondThin;startSize=14;startFill=1;edgeStyle=orthogonalEdgeStyle;align=left;verticalAlign=bottom;rounded=0;exitX=0.75;exitY=0;exitDx=0;exitDy=0;entryX=0;entryY=0.5;entryDx=0;entryDy=0;" edge="1" parent="1" source="xlgzFOz0VYX2NlcNm7eb-354" target="xlgzFOz0VYX2NlcNm7eb-317">
          <mxGeometry x="-1" y="3" relative="1" as="geometry">
            <mxPoint x="1060" y="2990" as="sourcePoint" />
            <mxPoint x="1220" y="2990" as="targetPoint" />
          </mxGeometry>
        </mxCell>
        <mxCell id="oRSVwbR3Z3SmRV7vV4Ph-41" value="1" style="endArrow=open;html=1;endSize=12;startArrow=diamondThin;startSize=14;startFill=1;edgeStyle=orthogonalEdgeStyle;align=left;verticalAlign=bottom;rounded=0;exitX=0.5;exitY=0;exitDx=0;exitDy=0;entryX=1;entryY=0.5;entryDx=0;entryDy=0;" edge="1" parent="1" source="xlgzFOz0VYX2NlcNm7eb-342" target="xlgzFOz0VYX2NlcNm7eb-260">
          <mxGeometry x="-1" y="3" relative="1" as="geometry">
            <mxPoint x="260" y="3000" as="sourcePoint" />
            <mxPoint x="160" y="2580" as="targetPoint" />
            <Array as="points">
              <mxPoint x="120" y="3370" />
              <mxPoint x="120" y="2187" />
            </Array>
          </mxGeometry>
        </mxCell>
        <mxCell id="oRSVwbR3Z3SmRV7vV4Ph-42" value="Text" style="edgeLabel;html=1;align=center;verticalAlign=middle;resizable=0;points=[];" vertex="1" connectable="0" parent="oRSVwbR3Z3SmRV7vV4Ph-41">
          <mxGeometry x="0.5157" y="-5" relative="1" as="geometry">
            <mxPoint as="offset" />
          </mxGeometry>
        </mxCell>
        <mxCell id="oRSVwbR3Z3SmRV7vV4Ph-44" value="1" style="endArrow=open;html=1;endSize=12;startArrow=diamondThin;startSize=14;startFill=1;edgeStyle=orthogonalEdgeStyle;align=left;verticalAlign=bottom;rounded=0;exitX=0.5;exitY=0;exitDx=0;exitDy=0;entryX=1;entryY=0.5;entryDx=0;entryDy=0;" edge="1" parent="1" source="xlgzFOz0VYX2NlcNm7eb-369" target="xlgzFOz0VYX2NlcNm7eb-276">
          <mxGeometry x="-1" y="3" relative="1" as="geometry">
            <mxPoint x="-330" y="3330" as="sourcePoint" />
            <mxPoint x="-170" y="3330" as="targetPoint" />
            <Array as="points">
              <mxPoint x="-570" y="3709" />
              <mxPoint x="-570" y="3220" />
              <mxPoint x="-330" y="3220" />
              <mxPoint x="-330" y="2717" />
            </Array>
          </mxGeometry>
        </mxCell>
        <mxCell id="oRSVwbR3Z3SmRV7vV4Ph-45" value="Text" style="edgeLabel;html=1;align=center;verticalAlign=middle;resizable=0;points=[];" vertex="1" connectable="0" parent="oRSVwbR3Z3SmRV7vV4Ph-44">
          <mxGeometry x="-0.4687" y="1" relative="1" as="geometry">
            <mxPoint as="offset" />
          </mxGeometry>
        </mxCell>
        <mxCell id="oRSVwbR3Z3SmRV7vV4Ph-47" style="edgeStyle=orthogonalEdgeStyle;rounded=0;orthogonalLoop=1;jettySize=auto;html=1;entryX=0.537;entryY=1.205;entryDx=0;entryDy=0;entryPerimeter=0;" edge="1" parent="1" source="xlgzFOz0VYX2NlcNm7eb-374" target="xlgzFOz0VYX2NlcNm7eb-276">
          <mxGeometry relative="1" as="geometry" />
        </mxCell>
        <mxCell id="oRSVwbR3Z3SmRV7vV4Ph-48" value="1" style="endArrow=open;html=1;endSize=12;startArrow=diamondThin;startSize=14;startFill=1;edgeStyle=orthogonalEdgeStyle;align=left;verticalAlign=bottom;rounded=0;exitX=0.5;exitY=0;exitDx=0;exitDy=0;entryX=1;entryY=0.5;entryDx=0;entryDy=0;dashed=1;" edge="1" parent="1" source="xlgzFOz0VYX2NlcNm7eb-268" target="xlgzFOz0VYX2NlcNm7eb-146">
          <mxGeometry x="-1" y="3" relative="1" as="geometry">
            <mxPoint x="1290" y="1960" as="sourcePoint" />
            <mxPoint x="1390" y="1120" as="targetPoint" />
          </mxGeometry>
        </mxCell>
        <mxCell id="oRSVwbR3Z3SmRV7vV4Ph-52" style="edgeStyle=orthogonalEdgeStyle;rounded=0;orthogonalLoop=1;jettySize=auto;html=1;entryX=0.5;entryY=1;entryDx=0;entryDy=0;dashed=1;" edge="1" parent="1" source="xlgzFOz0VYX2NlcNm7eb-269" target="xlgzFOz0VYX2NlcNm7eb-134">
          <mxGeometry relative="1" as="geometry">
            <Array as="points">
              <mxPoint x="1510" y="2164" />
              <mxPoint x="1510" y="288" />
            </Array>
          </mxGeometry>
        </mxCell>
        <mxCell id="oRSVwbR3Z3SmRV7vV4Ph-57" style="edgeStyle=orthogonalEdgeStyle;rounded=0;orthogonalLoop=1;jettySize=auto;html=1;exitX=1;exitY=0.5;exitDx=0;exitDy=0;entryX=1;entryY=0.5;entryDx=0;entryDy=0;dashed=1;" edge="1" parent="1" source="xlgzFOz0VYX2NlcNm7eb-367" target="xlgzFOz0VYX2NlcNm7eb-152">
          <mxGeometry relative="1" as="geometry" />
        </mxCell>
        <mxCell id="oRSVwbR3Z3SmRV7vV4Ph-63" value="1" style="endArrow=open;html=1;endSize=12;startArrow=diamondThin;startSize=14;startFill=1;edgeStyle=orthogonalEdgeStyle;align=left;verticalAlign=bottom;rounded=0;entryX=0.75;entryY=1;entryDx=0;entryDy=0;exitX=0.25;exitY=0;exitDx=0;exitDy=0;" edge="1" parent="1" source="xlgzFOz0VYX2NlcNm7eb-342" target="xlgzFOz0VYX2NlcNm7eb-127">
          <mxGeometry x="-1" y="3" relative="1" as="geometry">
            <mxPoint x="414" y="1876" as="sourcePoint" />
            <mxPoint x="574" y="1876" as="targetPoint" />
          </mxGeometry>
        </mxCell>
        <mxCell id="oRSVwbR3Z3SmRV7vV4Ph-65" value="1" style="endArrow=open;html=1;endSize=12;startArrow=diamondThin;startSize=14;startFill=1;edgeStyle=orthogonalEdgeStyle;align=left;verticalAlign=bottom;rounded=0;exitX=0.75;exitY=0;exitDx=0;exitDy=0;entryX=0;entryY=0.5;entryDx=0;entryDy=0;" edge="1" parent="1" source="xlgzFOz0VYX2NlcNm7eb-277" target="xlgzFOz0VYX2NlcNm7eb-199">
          <mxGeometry x="-1" y="3" relative="1" as="geometry">
            <mxPoint x="414" y="2276" as="sourcePoint" />
            <mxPoint x="574" y="2276" as="targetPoint" />
          </mxGeometry>
        </mxCell>
        <mxCell id="oRSVwbR3Z3SmRV7vV4Ph-66" value="1" style="endArrow=open;html=1;endSize=12;startArrow=diamondThin;startSize=14;startFill=1;edgeStyle=orthogonalEdgeStyle;align=left;verticalAlign=bottom;rounded=0;exitX=1;exitY=0;exitDx=0;exitDy=0;entryX=0;entryY=0.5;entryDx=0;entryDy=0;" edge="1" parent="1" source="xlgzFOz0VYX2NlcNm7eb-277" target="xlgzFOz0VYX2NlcNm7eb-206">
          <mxGeometry x="-1" y="3" relative="1" as="geometry">
            <mxPoint x="414" y="2276" as="sourcePoint" />
            <mxPoint x="574" y="2276" as="targetPoint" />
          </mxGeometry>
        </mxCell>
        <mxCell id="oRSVwbR3Z3SmRV7vV4Ph-67" value="1" style="endArrow=open;html=1;endSize=12;startArrow=diamondThin;startSize=14;startFill=1;edgeStyle=orthogonalEdgeStyle;align=left;verticalAlign=bottom;rounded=0;exitX=0.75;exitY=0;exitDx=0;exitDy=0;entryX=0;entryY=0.5;entryDx=0;entryDy=0;" edge="1" parent="1" source="xlgzFOz0VYX2NlcNm7eb-246" target="xlgzFOz0VYX2NlcNm7eb-191">
          <mxGeometry x="-1" y="3" relative="1" as="geometry">
            <mxPoint x="414" y="1876" as="sourcePoint" />
            <mxPoint x="574" y="1876" as="targetPoint" />
          </mxGeometry>
        </mxCell>
        <mxCell id="oRSVwbR3Z3SmRV7vV4Ph-72" value="1" style="endArrow=open;html=1;endSize=12;startArrow=diamondThin;startSize=14;startFill=1;edgeStyle=orthogonalEdgeStyle;align=left;verticalAlign=bottom;rounded=0;exitX=0.25;exitY=0;exitDx=0;exitDy=0;entryX=0;entryY=0.5;entryDx=0;entryDy=0;" edge="1" parent="1" source="xlgzFOz0VYX2NlcNm7eb-369" target="xlgzFOz0VYX2NlcNm7eb-162">
          <mxGeometry x="-1" y="3" relative="1" as="geometry">
            <mxPoint x="-221" y="3273" as="sourcePoint" />
            <mxPoint x="-61" y="3273" as="targetPoint" />
          </mxGeometry>
        </mxCell>
        <mxCell id="oRSVwbR3Z3SmRV7vV4Ph-75" value="1" style="endArrow=open;html=1;endSize=12;startArrow=diamondThin;startSize=14;startFill=1;edgeStyle=orthogonalEdgeStyle;align=left;verticalAlign=bottom;rounded=0;exitX=0.5;exitY=0;exitDx=0;exitDy=0;entryX=1;entryY=0.5;entryDx=0;entryDy=0;" edge="1" parent="1" source="xlgzFOz0VYX2NlcNm7eb-346" target="xlgzFOz0VYX2NlcNm7eb-266">
          <mxGeometry x="-1" y="3" relative="1" as="geometry">
            <mxPoint x="588" y="2874" as="sourcePoint" />
            <mxPoint x="748" y="2874" as="targetPoint" />
          </mxGeometry>
        </mxCell>
        <mxCell id="oRSVwbR3Z3SmRV7vV4Ph-76" value="1" style="endArrow=open;html=1;endSize=12;startArrow=diamondThin;startSize=14;startFill=1;edgeStyle=orthogonalEdgeStyle;align=left;verticalAlign=bottom;rounded=0;exitX=0.25;exitY=0;exitDx=0;exitDy=0;entryX=0;entryY=0.5;entryDx=0;entryDy=0;" edge="1" parent="1" source="xlgzFOz0VYX2NlcNm7eb-378" target="xlgzFOz0VYX2NlcNm7eb-308">
          <mxGeometry x="-1" y="3" relative="1" as="geometry">
            <mxPoint x="271" y="3330" as="sourcePoint" />
            <mxPoint x="431" y="3330" as="targetPoint" />
          </mxGeometry>
        </mxCell>
      </root>
    </mxGraphModel>
  </diagram>
</mxfile>
